<svg width="31" height="31" viewBox="0 0 31 31" fill="none" xmlns="http://www.w3.org/2000/svg">
<g id="General / Gift">
<g id="Group 8963">
<path id="Vector 50" d="M5.58789 14.2646V24.1766C5.58789 25.5451 6.69732 26.6546 8.06588 26.6546H22.9338C24.3024 26.6546 25.4118 25.5451 25.4118 24.1766V14.2646" stroke="#EF6351" stroke-width="2.47799" stroke-linecap="round" stroke-linejoin="round"/>
<path id="Rectangle 8" d="M8.06592 6.21076C8.06592 4.50007 9.45271 3.11328 11.1634 3.11328V3.11328C13.5584 3.11328 15.4999 5.05479 15.4999 7.44976V9.30825H11.1634C9.45271 9.30825 8.06592 7.92146 8.06592 6.21076V6.21076Z" stroke="#EF6351" stroke-width="2.47799" stroke-linejoin="round"/>
<path id="Rectangle 9" d="M22.9336 6.21076C22.9336 4.50007 21.5468 3.11328 19.8361 3.11328V3.11328C17.4411 3.11328 15.4996 5.05479 15.4996 7.44976V9.30825H19.8361C21.5468 9.30825 22.9336 7.92146 22.9336 6.21076V6.21076Z" stroke="#EF6351" stroke-width="2.47799" stroke-linejoin="round"/>
<path id="Rectangle 10" d="M4.34912 9.30859H26.651V14.2646H4.34912V9.30859Z" stroke="#EF6351" stroke-width="2.47799" stroke-linecap="round" stroke-linejoin="round"/>
<path id="Vector 51" d="M15.5 14.2646V26.6546" stroke="#EF6351" stroke-width="2.47799" stroke-linecap="round" stroke-linejoin="round"/>
</g>
</g>
</svg>
