<svg width="31" height="30" viewBox="0 0 31 30" fill="none" xmlns="http://www.w3.org/2000/svg">
<g id="Group 8954">
<path id="Vector" d="M2.99988 8.75V7.97882C2.57397 7.97882 2.2287 8.32409 2.2287 8.75H2.99988ZM16.7499 8.75H17.5211C17.5211 8.32409 17.1758 7.97882 16.7499 7.97882V8.75ZM16.7499 11.25V10.4788C16.5453 10.4788 16.3492 10.5601 16.2046 10.7047C16.0599 10.8493 15.9787 11.0455 15.9787 11.25H16.7499ZM2.99988 9.52118H16.7499V7.97882H2.99988V9.52118ZM15.9787 8.75V23.75H17.5211V8.75H15.9787ZM3.77106 21.25V8.75H2.2287V21.25H3.77106ZM16.7499 12.0212H22.8905V10.4788H16.7499V12.0212ZM27.2287 16.3594V21.25H28.7711V16.3594H27.2287ZM17.5211 23.75L17.5211 11.25H15.9787L15.9787 23.75L17.5211 23.75ZM24.2223 24.9725C23.5472 25.6476 22.4526 25.6476 21.7774 24.9725L20.6868 26.0631C21.9643 27.3405 24.0355 27.3405 25.313 26.0631L24.2223 24.9725ZM21.7774 22.5275C22.4526 21.8524 23.5472 21.8524 24.2223 22.5275L25.313 21.4369C24.0355 20.1595 21.9643 20.1595 20.6868 21.4369L21.7774 22.5275ZM9.22234 24.9725C8.54719 25.6476 7.45256 25.6476 6.77742 24.9725L5.6868 26.0631C6.96428 27.3405 9.03547 27.3405 10.3129 26.0631L9.22234 24.9725ZM6.77742 22.5275C7.45256 21.8524 8.54719 21.8524 9.22234 22.5275L10.3129 21.4369C9.03547 20.1595 6.96428 20.1595 5.6868 21.4369L6.77742 22.5275ZM24.2223 22.5275C24.5601 22.8653 24.7287 23.3064 24.7287 23.75H26.2711C26.2711 22.914 25.9515 22.0755 25.313 21.4369L24.2223 22.5275ZM24.7287 23.75C24.7287 24.1936 24.5601 24.6347 24.2223 24.9725L25.313 26.0631C25.9515 25.4245 26.2711 24.586 26.2711 23.75H24.7287ZM20.4999 22.9788H16.7499V24.5212H20.4999V22.9788ZM21.7774 24.9725C21.4397 24.6347 21.2711 24.1936 21.2711 23.75H19.7287C19.7287 24.586 20.0482 25.4245 20.6868 26.0631L21.7774 24.9725ZM21.2711 23.75C21.2711 23.3064 21.4397 22.8653 21.7774 22.5275L20.6868 21.4369C20.0482 22.0755 19.7287 22.914 19.7287 23.75H21.2711ZM6.77742 24.9725C6.43969 24.6347 6.27106 24.1936 6.27106 23.75H4.7287C4.7287 24.586 5.04822 25.4245 5.6868 26.0631L6.77742 24.9725ZM6.27106 23.75C6.27106 23.3064 6.43969 22.8653 6.77742 22.5275L5.6868 21.4369C5.04822 22.0755 4.7287 22.914 4.7287 23.75H6.27106ZM16.7499 22.9788H10.4999V24.5212H16.7499V22.9788ZM9.22234 22.5275C9.56006 22.8653 9.7287 23.3064 9.7287 23.75H11.2711C11.2711 22.914 10.9515 22.0755 10.3129 21.4369L9.22234 22.5275ZM9.7287 23.75C9.7287 24.1936 9.56006 24.6347 9.22234 24.9725L10.3129 26.0631C10.9515 25.4245 11.2711 24.586 11.2711 23.75H9.7287ZM27.2287 21.25C27.2287 22.2048 26.4547 22.9788 25.4999 22.9788V24.5212C27.3065 24.5212 28.7711 23.0566 28.7711 21.25H27.2287ZM22.8905 12.0212C25.2864 12.0212 27.2287 13.9635 27.2287 16.3594H28.7711C28.7711 13.1116 26.1382 10.4788 22.8905 10.4788V12.0212ZM2.2287 21.25C2.2287 23.0566 3.69326 24.5212 5.49988 24.5212V22.9788C4.54508 22.9788 3.77106 22.2048 3.77106 21.25H2.2287Z" fill="#EF6351"/>
<path id="Rectangle 8" d="M4.87488 5C4.87488 4.30964 5.43452 3.75 6.12488 3.75V3.75C8.19595 3.75 9.87488 5.42893 9.87488 7.5V8.75H8.62488C6.55381 8.75 4.87488 7.07107 4.87488 5V5Z" stroke="#EF6351" stroke-width="1.54236" stroke-linejoin="round"/>
<path id="Rectangle 9" d="M14.8751 5C14.8751 4.30964 14.3155 3.75 13.6251 3.75V3.75C11.5541 3.75 9.87512 5.42893 9.87512 7.5V8.75H11.1251C13.1962 8.75 14.8751 7.07107 14.8751 5V5Z" stroke="#EF6351" stroke-width="1.54236" stroke-linejoin="round"/>
</g>
</svg>
