<svg width="24" height="25" viewBox="0 0 24 25" fill="none" xmlns="http://www.w3.org/2000/svg">
<g id="Iconsax/Linear/i24support">
<path id="Vector" d="M18 19.3598H17.24C16.44 19.3598 15.68 19.6698 15.12 20.2298L13.41 21.9198C12.63 22.6898 11.36 22.6898 10.58 21.9198L8.87 20.2298C8.31 19.6698 7.54 19.3598 6.75 19.3598H6C4.34 19.3598 3 18.0298 3 16.3898V5.47977C3 3.83977 4.34 2.50977 6 2.50977H18C19.66 2.50977 21 3.83977 21 5.47977V16.3898C21 18.0198 19.66 19.3598 18 19.3598Z" stroke="#EF6351" stroke-width="1.5" stroke-miterlimit="10" stroke-linecap="round" stroke-linejoin="round"/>
<path id="Vector_2" d="M7 9.6601C7 8.7301 7.76 7.9701 8.69 7.9701C9.62 7.9701 10.38 8.7301 10.38 9.6601C10.38 11.5401 7.71 11.7401 7.12 13.5301C7 13.9001 7.31 14.2701 7.7 14.2701H10.38M16.04 14.2601V8.5501C16.0405 8.42375 15.9998 8.30068 15.924 8.1996C15.8482 8.09851 15.7414 8.02495 15.62 7.9901C15.4977 7.95556 15.3676 7.96122 15.2488 8.00622C15.1299 8.05123 15.0287 8.13322 14.96 8.2401C14.24 9.4001 13.46 10.7201 12.78 11.8801C12.67 12.0701 12.67 12.3201 12.78 12.5101C12.89 12.7001 13.1 12.8201 13.33 12.8201H17" stroke="#EF6351" stroke-width="1.5" stroke-linecap="round" stroke-linejoin="round"/>
</g>
</svg>
