<svg width="23" height="23" viewBox="0 0 23 23" fill="none" xmlns="http://www.w3.org/2000/svg">
<g id="wallet _remove">
<path id="Rectangle 1332" d="M14.4504 21.449H4.65262C2.68492 21.449 1.08978 19.8539 1.08978 17.8862V11.015C1.08978 9.04729 2.68492 7.45215 4.65262 7.45215H17.886C19.8537 7.45215 21.4489 9.04729 21.4489 11.015V14.4506" stroke="#EF6351" stroke-width="1.90866" stroke-linecap="round"/>
<path id="Rectangle 1335" d="M1.08978 10.6332V6.81587C1.08978 5.059 2.51401 3.63477 4.27089 3.63477H5.54333H6.65672M18.904 7.13398V6.81587C18.904 5.059 17.4798 3.63477 15.7229 3.63477H14.4504" stroke="#EF6351" stroke-width="1.90866"/>
<path id="Rectangle 1334" d="M1.08978 12.542H4.27089C5.32501 12.542 6.17955 13.3965 6.17955 14.4507V14.4507C6.17955 15.5048 5.32502 16.3593 4.27089 16.3593H1.08978V12.542Z" stroke="#EF6351" stroke-width="1.90866"/>
<path id="Vector 479" d="M4.9071 6.81584L6.67076 1.52487C6.75736 1.26508 7.00048 1.08984 7.27433 1.08984H14.2432C14.6659 1.08984 14.9711 1.49442 14.8549 1.90085L13.8142 5.54339L13.178 7.45206" stroke="#EF6351" stroke-width="1.90866" stroke-linecap="round"/>
<path id="Vector" d="M20.596 18.9325L17.25 18.9141" stroke="#EF6351" stroke-width="1.90866" stroke-miterlimit="10" stroke-linecap="round" stroke-linejoin="round"/>
</g>
</svg>
