<svg width="20" height="21" viewBox="0 0 20 21" fill="none" xmlns="http://www.w3.org/2000/svg">
<g id="Icon/Font Awesome Free/Solid/E/eye">
<path id="Vector" d="M9.99984 6.9386C9.69316 6.94339 9.38875 6.99211 9.0959 7.08327C9.23136 7.3215 9.30349 7.59048 9.30539 7.86453C9.30539 8.07732 9.26348 8.28802 9.18205 8.48462C9.10062 8.68121 8.98126 8.85984 8.83079 9.0103C8.68033 9.16077 8.5017 9.28012 8.30511 9.36156C8.10851 9.44299 7.89781 9.4849 7.68502 9.4849C7.41097 9.483 7.14199 9.41087 6.90377 9.27541C6.71581 9.92726 6.73772 10.6217 6.96638 11.2604C7.19505 11.8991 7.61887 12.4497 8.17783 12.8342C8.73679 13.2186 9.40254 13.4175 10.0808 13.4025C10.759 13.3876 11.4154 13.1596 11.9569 12.7509C12.4983 12.3422 12.8975 11.7735 13.0978 11.1253C13.2981 10.4772 13.2894 9.78243 13.073 9.13949C12.8565 8.49655 12.4432 7.93802 11.8916 7.54301C11.3401 7.14801 10.6782 6.93655 9.99984 6.9386ZM18.2325 9.75689C16.6633 6.69525 13.5568 4.62378 9.99984 4.62378C6.44283 4.62378 3.33547 6.6967 1.76718 9.75718C1.70099 9.88811 1.6665 10.0328 1.6665 10.1795C1.6665 10.3262 1.70099 10.4709 1.76718 10.6018C3.33634 13.6634 6.44283 15.7349 9.99984 15.7349C13.5568 15.7349 16.6642 13.662 18.2325 10.6015C18.2987 10.4706 18.3332 10.3259 18.3332 10.1792C18.3332 10.0325 18.2987 9.88783 18.2325 9.75689ZM9.99984 14.346C7.14538 14.346 4.52847 12.7546 3.11528 10.1793C4.52847 7.60411 7.14509 6.01267 9.99984 6.01267C12.8546 6.01267 15.4712 7.60411 16.8844 10.1793C15.4715 12.7546 12.8546 14.346 9.99984 14.346Z" fill="black"/>
</g>
</svg>
