<svg width="25" height="24" viewBox="0 0 25 24" fill="none" xmlns="http://www.w3.org/2000/svg">
<path d="M17 8.6303C16.59 8.6303 16.25 8.2903 16.25 7.8803V6.5003C16.25 5.4503 15.8 4.4303 15.02 3.7203C14.23 3.0003 13.21 2.6703 12.13 2.7703C10.33 2.9403 8.75 4.7803 8.75 6.7003V7.6703C8.75 8.0803 8.41 8.4203 8 8.4203C7.59 8.4203 7.25 8.0803 7.25 7.6703V6.6903C7.25 4.0003 9.42 1.5203 11.99 1.2703C13.49 1.1303 14.93 1.6003 16.03 2.6103C17.12 3.6003 17.75 5.0203 17.75 6.5003V7.8803C17.75 8.2903 17.41 8.6303 17 8.6303Z" fill="white"/>
<path d="M15.4998 22.75H9.49982C4.87982 22.75 4.01982 20.6 3.79982 18.51L3.04982 12.52C2.93982 11.44 2.89982 9.89 3.94982 8.73C4.84982 7.73 6.33982 7.25 8.49982 7.25H16.4998C18.6698 7.25 20.1598 7.74 21.0498 8.73C22.0898 9.89 22.0598 11.44 21.9498 12.5L21.1998 18.51C20.9798 20.6 20.1198 22.75 15.4998 22.75ZM8.49982 8.75C6.80982 8.75 5.64982 9.08 5.05982 9.74C4.56982 10.28 4.40982 11.11 4.53982 12.35L5.28982 18.34C5.45982 19.94 5.89982 21.26 9.49982 21.26H15.4998C19.0998 21.26 19.5398 19.95 19.7098 18.36L20.4598 12.35C20.5898 11.13 20.4298 10.3 19.9398 9.75C19.3498 9.08 18.1898 8.75 16.4998 8.75H8.49982Z" fill="white"/>
<path d="M15.9202 13.1504C15.3602 13.1504 14.9102 12.7004 14.9102 12.1504C14.9102 11.6004 15.3602 11.1504 15.9102 11.1504C16.4602 11.1504 16.9102 11.6004 16.9102 12.1504C16.9102 12.7004 16.4702 13.1504 15.9202 13.1504Z" fill="white"/>
<path d="M8.92016 13.1504C8.36016 13.1504 7.91016 12.7004 7.91016 12.1504C7.91016 11.6004 8.36016 11.1504 8.91016 11.1504C9.46016 11.1504 9.91016 11.6004 9.91016 12.1504C9.91016 12.7004 9.47016 13.1504 8.92016 13.1504Z" fill="white"/>
</svg>
