<svg width="38" height="38" viewBox="0 0 38 38" fill="none" xmlns="http://www.w3.org/2000/svg">
<g id="face">
<path id="Ellipse 2" d="M37.3706 18.9993C37.3706 29.1447 29.1458 37.3692 19 37.3692C8.85417 37.3692 0.629384 29.1447 0.629384 18.9993C0.629384 8.85389 8.85417 0.629384 19 0.629384C29.1458 0.629384 37.3706 8.85389 37.3706 18.9993Z" stroke="#2B0000" stroke-width="1.25877"/>
<path id="Vector" d="M17.5342 17.1122H17.8215V16.8249V14.7324C17.8215 13.6464 18.118 12.8445 18.5957 12.3173C19.0707 11.7931 19.7531 11.509 20.5927 11.509C21.2355 11.509 21.8081 11.5495 22.1394 11.5824V13.4154H21.1678C20.626 13.4154 20.2256 13.5612 19.9791 13.8886C19.7476 14.196 19.7024 14.6031 19.7021 14.9956V14.9958V16.8255V17.1128H19.9894H21.8948L21.6557 19.1942H19.9899H19.7026V19.4815V25.8764H17.8215V19.4809V19.1936H17.5342H15.8185V17.1122H17.5342Z" fill="#444444" stroke="#2B0000" stroke-width="0.574573"/>
</g>
</svg>
