<svg width="38" height="38" viewBox="0 0 38 38" fill="none" xmlns="http://www.w3.org/2000/svg">
<path d="M37.3706 18.9994C37.3706 29.1448 29.1458 37.3693 19 37.3693C8.85417 37.3693 0.629384 29.1448 0.629384 18.9994C0.629384 8.85401 8.85417 0.629506 19 0.629506C29.1458 0.629506 37.3706 8.85401 37.3706 18.9994Z" stroke="#2B0000" stroke-width="1.25877"/>
<g clip-path="url(#clip0_8397_29315)">
<path d="M22.3523 11.0055H15.6477C13.085 11.0055 11 13.0905 11 15.6532V22.3577C11 24.9205 13.085 27.0055 15.6477 27.0055H22.3523C24.915 27.0055 27 24.9205 27 22.3578V15.6532C27 13.0905 24.915 11.0055 22.3523 11.0055ZM25.75 22.3577C25.75 24.2313 24.2258 25.7555 22.3523 25.7555H15.6477C13.7742 25.7555 12.25 24.2313 12.25 22.3578V15.6532C12.25 13.7797 13.7742 12.2555 15.6477 12.2555H22.3523C24.2258 12.2555 25.75 13.7797 25.75 15.6532V22.3577Z" fill="#444444"/>
<path d="M19 14.693C16.6221 14.693 14.6875 16.6276 14.6875 19.0055C14.6875 21.3834 16.6221 23.318 19 23.318C21.3779 23.318 23.3125 21.3834 23.3125 19.0055C23.3125 16.6276 21.3779 14.693 19 14.693ZM19 22.068C17.3113 22.068 15.9375 20.6941 15.9375 19.0055C15.9375 17.3168 17.3113 15.943 19 15.943C20.6887 15.943 22.0625 17.3168 22.0625 19.0055C22.0625 20.6941 20.6887 22.068 19 22.068Z" fill="#444444"/>
<path d="M23.375 15.2555C23.7202 15.2555 24 14.9757 24 14.6305C24 14.2853 23.7202 14.0055 23.375 14.0055C23.0298 14.0055 22.75 14.2853 22.75 14.6305C22.75 14.9757 23.0298 15.2555 23.375 15.2555Z" fill="#444444"/>
</g>
<rect x="11.0142" y="11.0197" width="15.9717" height="15.9717" stroke="#2B0000" stroke-width="0.0283167"/>
<defs>
<clipPath id="clip0_8397_29315">
<rect x="11" y="11.0055" width="16" height="16" fill="white"/>
</clipPath>
</defs>
</svg>
