<svg width="38" height="38" viewBox="0 0 38 38" fill="none" xmlns="http://www.w3.org/2000/svg">
<g id="snap">
<path id="Ellipse 2" d="M37.3706 18.9994C37.3706 29.1448 29.1458 37.3693 19 37.3693C8.85417 37.3693 0.629384 29.1448 0.629384 18.9994C0.629384 8.85401 8.85417 0.629506 19 0.629506C29.1458 0.629506 37.3706 8.85401 37.3706 18.9994Z" stroke="#2B0000" stroke-width="1.25877"/>
<path id="Vector" d="M11.3149 23.401C12.7596 23.1427 13.9332 21.8638 14.4708 20.5335C14.4728 20.5269 14.4755 20.5204 14.4788 20.5139M11.3149 23.401L13.4545 19.2814C13.5617 19.327 13.6681 19.3678 13.7704 19.407C14.3544 19.6311 14.8018 19.8027 14.4788 20.5139M11.3149 23.401C11.0819 23.4423 10.9226 23.7086 11.0391 24.0024L11.3149 23.401ZM14.4788 20.5139L14.4788 20.5139L14.4788 20.5139ZM24.8544 24.6205L24.683 24.6496L24.6083 24.8065C24.5242 24.983 24.4922 25.1712 24.4703 25.3116C24.4675 25.3297 24.4649 25.3469 24.4623 25.3633C24.4424 25.4928 24.4299 25.5734 24.4054 25.6393C24.3861 25.6911 24.3732 25.6961 24.3629 25.7002C24.3624 25.7004 24.3618 25.7006 24.3613 25.7008C24.3288 25.7138 24.2287 25.7347 23.9916 25.685C23.2468 25.5264 22.7092 25.5378 22.2548 25.6815C21.8238 25.8179 21.4984 26.0662 21.1822 26.3075C21.171 26.3161 21.1598 26.3246 21.1486 26.3331L21.0825 26.3835L21.082 26.3847C20.4215 26.8837 19.8225 27.2519 19.039 27.1989L19.0145 27.1973L18.99 27.1992C18.2236 27.2599 17.5873 26.8453 16.919 26.3335L16.9189 26.3335C16.6019 26.091 16.3394 25.893 16.0453 25.7644C15.7387 25.6303 15.4185 25.5791 14.9869 25.5791C14.6787 25.5791 14.4076 25.6233 14.1941 25.6646C14.1408 25.6749 14.0961 25.6839 14.0554 25.6922C14.0076 25.7018 13.9653 25.7104 13.9206 25.7187C13.8417 25.7332 13.7984 25.7379 13.7752 25.7379C13.7129 25.7379 13.7063 25.7223 13.7062 25.7221C13.6928 25.7078 13.6682 25.6681 13.6432 25.5701C13.625 25.4991 13.6131 25.4276 13.5988 25.3419C13.5929 25.3062 13.5865 25.268 13.5792 25.2265C13.5572 25.1026 13.525 24.9433 13.4554 24.8024L13.3797 24.6489L13.211 24.6204C12.9115 24.5699 12.4666 24.4878 12.0718 24.3495C11.8744 24.2803 11.7027 24.2015 11.5724 24.1141C11.4501 24.032 11.3858 23.9568 11.3568 23.8955L11.3502 23.879C11.3252 23.8158 11.3359 23.7755 11.3451 23.7571C11.3558 23.7359 11.3687 23.7314 11.3734 23.7306L11.3738 23.7305C12.9699 23.4452 14.2172 22.0544 14.7811 20.6589L14.7855 20.6481C14.8933 20.4095 14.9474 20.1775 14.9102 19.9562C14.8707 19.7216 14.7382 19.554 14.5838 19.4344C14.4382 19.3216 14.2601 19.2414 14.0973 19.1754C14.0189 19.1436 13.9482 19.1166 13.8787 19.09C13.7841 19.0538 13.6918 19.0186 13.5857 18.9735C13.3896 18.8895 13.2066 18.7859 13.086 18.6672C12.9725 18.5556 12.9398 18.4599 12.9568 18.358C12.9709 18.2805 13.0242 18.1971 13.1237 18.1272C13.2246 18.0564 13.3471 18.0188 13.4485 18.0188C13.4665 18.0188 13.509 18.0261 13.5992 18.0608C13.6398 18.0764 13.6823 18.0944 13.7323 18.1155L13.7386 18.1182C13.7894 18.1396 13.8469 18.1638 13.9067 18.1865C14.1392 18.2749 14.4822 18.3725 14.8428 18.2021L15.0474 18.1054L15.0339 17.8795C15.0276 17.7744 15.0213 17.6712 15.015 17.5697C14.8818 15.3919 14.7997 14.051 16.1038 12.7113L16.1039 12.7112C16.9635 11.8273 18.3381 11.399 19.6662 11.5907C20.9813 11.7805 22.2335 12.5758 22.8724 14.1265L22.8725 14.1267C23.0502 14.5571 23.1123 15.2014 23.1142 15.9112C23.1157 16.4621 23.0817 17.0184 23.0522 17.5019C23.0441 17.6343 23.0364 17.7612 23.0298 17.8811L23.0176 18.1013L23.2152 18.1993C23.4467 18.3142 23.6998 18.2888 23.8876 18.2438C24.0837 18.1968 24.2698 18.1134 24.4076 18.0433L24.408 18.0431C24.5616 17.9646 24.8161 18.0079 24.9903 18.1716C25.0697 18.2462 25.1058 18.3236 25.1121 18.3878C25.1175 18.4438 25.1045 18.5301 25.0028 18.6435C24.8935 18.7647 24.728 18.8615 24.5099 18.9547C24.4081 18.9983 24.3032 19.0377 24.1929 19.0792L24.174 19.0863C24.06 19.1292 23.9386 19.1752 23.8253 19.2262C23.6124 19.3221 23.3487 19.4681 23.2152 19.7354C23.0715 20.0229 23.125 20.3435 23.2911 20.6725C23.3417 20.7974 23.6076 21.4169 24.12 22.0698C24.6616 22.7598 25.5058 23.521 26.6927 23.7327L26.6945 23.733C26.6984 23.7337 26.7115 23.7386 26.7215 23.7575C26.7287 23.7714 26.7425 23.8097 26.7149 23.8811C26.6886 23.9457 26.6236 24.0262 26.4926 24.1142C26.363 24.2014 26.1923 24.2799 25.9958 24.3488C25.6025 24.4867 25.1586 24.5688 24.8544 24.6205Z" fill="#444444" stroke="#2B0000" stroke-width="0.669469"/>
</g>
</svg>
