<svg width="113" height="24" viewBox="0 0 113 24" fill="none" xmlns="http://www.w3.org/2000/svg">
<path d="M57.6172 0.324179C57.9595 0.540705 58.2369 0.889973 58.3564 1.2837C58.3566 1.28413 58.3572 1.28404 58.3572 1.28359C58.3572 1.28314 58.3579 1.28304 58.358 1.28347C59.7338 5.60913 63.4137 9.02246 68.0573 10.2928C68.7159 10.4663 69.3484 10.834 70.0295 10.834L111.235 10.834C111.933 10.834 112.5 11.3569 112.5 12C112.5 12.6432 111.936 13.166 111.235 13.166L70.0317 13.166C69.3487 13.166 68.7148 13.5332 68.0544 13.7072C63.41 14.9778 59.7296 18.3922 58.3544 22.7216C58.2353 23.1138 57.9574 23.4614 57.6143 23.6784C57.2712 23.898 56.8828 24 56.5028 24C56.1201 24 55.7344 23.898 55.3913 23.6784C55.0516 23.4618 54.7713 23.1148 54.649 22.7235C54.6487 22.7222 54.648 22.7211 54.647 22.7203C54.6461 22.7194 54.6454 22.7183 54.645 22.7171C53.2694 18.3912 49.5894 14.9776 44.9456 13.7072C44.2852 13.5332 43.6513 13.166 42.9684 13.166L1.7646 13.166C1.06709 13.166 0.5 12.6432 0.5 12C0.5 11.3569 1.06709 10.834 1.7646 10.834L42.9711 10.834C43.6523 10.834 44.2852 10.4708 44.9427 10.2928C49.59 9.02223 53.2676 5.60785 54.6428 1.28105C54.7647 0.88628 55.0426 0.538555 55.3857 0.321562C55.7259 0.101954 56.1144 -1.90735e-06 56.4972 -1.90735e-06C56.88 -1.90735e-06 57.2684 0.101954 57.6115 0.321562L57.6172 0.324179ZM47.265 12.0013C47.265 12.0007 47.2656 12.0003 47.2662 12.0005C49.4886 12.8442 51.4714 14.1127 53.099 15.6986C54.7415 17.2991 58.2124 17.3689 59.8467 15.76C61.5769 14.0567 61.5747 9.94491 59.8447 8.24135C58.2106 6.6322 54.7428 6.70086 53.1006 8.30172C51.4729 9.88849 49.4899 11.158 47.2662 12.0022C47.2656 12.0024 47.265 12.002 47.265 12.0013Z" fill="#F38375"/>
</svg>
