<svg width="38" height="38" viewBox="0 0 38 38" fill="none" xmlns="http://www.w3.org/2000/svg">
<g id="tweter">
<path id="Ellipse 2" d="M37.3706 18.9993C37.3706 29.1447 29.1458 37.3692 19 37.3692C8.85417 37.3692 0.629384 29.1447 0.629384 18.9993C0.629384 8.85389 8.85417 0.629384 19 0.629384C29.1458 0.629384 37.3706 8.85389 37.3706 18.9993Z" stroke="#2B0000" stroke-width="1.25877"/>
<path id="Vector" d="M13.4728 25.2988C14.7992 25.202 16.0166 24.6686 16.9931 23.8413L17.6112 23.3176L16.8012 23.2984C15.7828 23.2742 14.8859 22.6302 14.4319 21.681C14.4669 21.6819 14.5015 21.6822 14.5356 21.6822C14.8397 21.6822 15.1383 21.6444 15.418 21.5613L16.5571 21.2227L15.397 20.9654C14.3064 20.7234 13.4242 19.7532 13.2438 18.5099C13.5648 18.6334 13.9112 18.7079 14.265 18.7151L15.2495 18.7354L14.452 18.1577C13.7273 17.6328 13.2327 16.7185 13.2327 15.6778C13.2327 15.3006 13.2982 14.9415 13.4158 14.6083C14.9529 16.4392 17.1278 17.6314 19.5713 17.7609L19.9711 17.7821L19.8891 17.3902C19.8445 17.1775 19.8254 16.9491 19.8254 16.7044C19.8254 15.0409 21.0621 13.7277 22.5463 13.7277C23.3142 13.7277 24.0246 14.0801 24.5275 14.6606L24.6471 14.7987L24.8256 14.76C25.2416 14.6697 25.6433 14.5387 26.0269 14.368C25.8042 14.714 25.5154 15.0041 25.1813 15.2203L25.3906 15.784C25.6807 15.7441 25.9656 15.6849 26.2441 15.6067C25.9849 15.9091 25.6996 16.1819 25.3881 16.4216L25.2611 16.5193L25.2682 16.6794C25.4817 21.4826 22.0928 26.1278 16.9603 26.1278C15.7121 26.1278 14.533 25.8332 13.4728 25.2988Z" fill="#444444" stroke="#2B0000" stroke-width="0.61602"/>
</g>
</svg>
