<svg width="19" height="20" viewBox="0 0 19 20" fill="none" xmlns="http://www.w3.org/2000/svg">
<path d="M13.459 6.83412C13.459 4.64918 11.6868 2.87793 9.50065 2.87793C7.31452 2.87793 5.54232 4.64918 5.54232 6.83412C5.54232 9.01906 7.31452 10.7903 9.50065 10.7903C11.6868 10.7903 13.459 9.01906 13.459 6.83412ZM9.50065 9.20783C8.18897 9.20783 7.12565 8.14508 7.12565 6.83412C7.12565 5.52315 8.18897 4.4604 9.50065 4.4604C10.8123 4.4604 11.8757 5.52315 11.8757 6.83412C11.8757 8.14508 10.8123 9.20783 9.50065 9.20783Z" fill="#3B352F"/>
<path d="M13.979 13.4355C15.1667 14.6226 15.834 16.2326 15.834 17.9114H14.2507C14.2507 16.6523 13.7502 15.4448 12.8594 14.5545C11.9686 13.6642 10.7604 13.164 9.50065 13.164C8.24087 13.164 7.03269 13.6642 6.14189 14.5545C5.25109 15.4448 4.75065 16.6523 4.75065 17.9114H3.16732C3.16732 16.2326 3.83458 14.6226 5.02231 13.4355C6.21004 12.2484 7.82095 11.5815 9.50065 11.5815C11.1804 11.5815 12.7913 12.2484 13.979 13.4355Z" fill="#3B352F"/>
</svg>
