<svg width="25" height="25" viewBox="0 0 25 25" fill="none" xmlns="http://www.w3.org/2000/svg">
<g id="vuesax/outline/bag-2">
<g id="bag-2">
<path id="Vector" d="M17 9.1303C16.59 9.1303 16.25 8.7903 16.25 8.3803V7.0003C16.25 5.9503 15.8 4.9303 15.02 4.2203C14.23 3.5003 13.21 3.1703 12.13 3.2703C10.33 3.4403 8.75 5.2803 8.75 7.2003V8.1703C8.75 8.5803 8.41 8.9203 8 8.9203C7.59 8.9203 7.25 8.5803 7.25 8.1703V7.1903C7.25 4.5003 9.42 2.0203 11.99 1.7703C13.49 1.6303 14.93 2.1003 16.03 3.1103C17.12 4.1003 17.75 5.5203 17.75 7.0003V8.3803C17.75 8.7903 17.41 9.1303 17 9.1303Z" fill="white"/>
<path id="Vector_2" d="M15.4998 23.25H9.49982C4.87982 23.25 4.01982 21.1 3.79982 19.01L3.04982 13.02C2.93982 11.94 2.89982 10.39 3.94982 9.23C4.84982 8.23 6.33982 7.75 8.49982 7.75H16.4998C18.6698 7.75 20.1598 8.24 21.0498 9.23C22.0898 10.39 22.0598 11.94 21.9498 13L21.1998 19.01C20.9798 21.1 20.1198 23.25 15.4998 23.25ZM8.49982 9.25C6.80982 9.25 5.64982 9.58 5.05982 10.24C4.56982 10.78 4.40982 11.61 4.53982 12.85L5.28982 18.84C5.45982 20.44 5.89982 21.76 9.49982 21.76H15.4998C19.0998 21.76 19.5398 20.45 19.7098 18.86L20.4598 12.85C20.5898 11.63 20.4298 10.8 19.9398 10.25C19.3498 9.58 18.1898 9.25 16.4998 9.25H8.49982Z" fill="white"/>
<path id="Vector_3" d="M15.9202 13.6504C15.3602 13.6504 14.9102 13.2004 14.9102 12.6504C14.9102 12.1004 15.3602 11.6504 15.9102 11.6504C16.4602 11.6504 16.9102 12.1004 16.9102 12.6504C16.9102 13.2004 16.4702 13.6504 15.9202 13.6504Z" fill="white"/>
<path id="Vector_4" d="M8.92016 13.6504C8.36016 13.6504 7.91016 13.2004 7.91016 12.6504C7.91016 12.1004 8.36016 11.6504 8.91016 11.6504C9.46016 11.6504 9.91016 12.1004 9.91016 12.6504C9.91016 13.2004 9.47016 13.6504 8.92016 13.6504Z" fill="white"/>
</g>
</g>
</svg>
