<svg width="20" height="21" viewBox="0 0 20 21"  xmlns="http://www.w3.org/2000/svg">
<g id="basic / checkbox_checked">
<g id="Group">
<path id="Vector" d="M18.3339 9.99657C18.3339 10.9854 17.9631 11.9124 17.2625 12.613C17.1595 12.7365 16.9947 12.7778 16.8505 12.7778C16.7062 12.7778 16.5621 12.716 16.4385 12.613C16.2119 12.3863 16.2119 12.0361 16.4385 11.8095C16.9123 11.315 17.1802 10.6764 17.1802 9.99657C17.1802 8.57505 16.0265 7.40085 14.5844 7.40085H8.21828L9.68111 8.86361C9.90775 9.09023 9.90775 9.46097 9.68111 9.66706C9.57807 9.77009 9.41324 9.83189 9.26911 9.83189C9.12482 9.83189 8.98068 9.77009 8.8571 9.66706L6.42597 7.25661C6.40542 7.23606 6.38472 7.19482 6.36417 7.17427C6.34362 7.15372 6.34362 7.13302 6.34362 7.13302C6.34362 7.11247 6.32307 7.09178 6.32307 7.09178C6.32307 7.07123 6.30252 7.05054 6.30252 7.02999C6.30252 7.00944 6.30252 7.00944 6.28197 6.98875C6.26142 6.9064 6.26142 6.84447 6.28197 6.76213V6.74158C6.28197 6.72103 6.30252 6.67978 6.30252 6.65923C6.30252 6.63868 6.32307 6.63868 6.32307 6.61799C6.34362 6.59744 6.34362 6.57675 6.36432 6.5562C6.36432 6.53565 6.38487 6.53565 6.40556 6.51496L8.8985 4.02214C9.12513 3.79552 9.49589 3.79552 9.70199 4.02214C9.92862 4.24876 9.92862 4.6195 9.70199 4.82558L8.23916 6.28834H14.6052C16.6653 6.26779 18.3342 7.93647 18.3342 9.99656L18.3339 9.99657ZM13.6572 13.3957C13.6572 13.3751 13.6777 13.3751 13.6777 13.3544C13.6983 13.3339 13.6983 13.2927 13.6983 13.2721V13.2516C13.7188 13.1692 13.7188 13.1073 13.6983 13.0249C13.6983 13.0044 13.6983 13.0044 13.6777 12.9837C13.6777 12.9631 13.6572 12.9424 13.6572 12.9219C13.6572 12.9014 13.6366 12.8807 13.6159 12.8601C13.6159 12.8396 13.5954 12.8396 13.5954 12.8189C13.5748 12.7776 13.5542 12.7571 13.5131 12.7365L11.1025 10.3055C10.8759 10.0789 10.5051 10.0789 10.299 10.3055C10.0724 10.5321 10.0724 10.9029 10.299 11.109L11.7618 12.5717H5.39575C3.97416 12.5717 2.79991 11.4181 2.79991 9.976C2.79991 9.29616 3.06778 8.65752 3.54159 8.16306C3.76822 7.93644 3.76822 7.5657 3.54159 7.35961C3.31495 7.13299 2.94419 7.13299 2.7381 7.35961C2.03766 8.06002 1.66675 8.98703 1.66675 9.976C1.66675 12.0361 3.33549 13.7254 5.41635 13.7254H11.7824L10.3196 15.1882C10.093 15.4148 10.093 15.7855 10.3196 15.9916C10.4226 16.0947 10.5875 16.1564 10.7316 16.1564C10.8759 16.1564 11.02 16.0947 11.1436 15.9916L13.5953 13.54C13.6159 13.5195 13.6159 13.4988 13.6366 13.4988C13.6366 13.4782 13.6571 13.4782 13.6571 13.4576C13.6366 13.4574 13.6571 13.4369 13.6571 13.3956L13.6572 13.3957Z" fill="#2B0000"/>
</g>
</g>
</svg>
