<svg width="18" height="18" viewBox="0 0 20 22" fill="none" xmlns="http://www.w3.org/2000/svg">
<path d="M8.9399 21.65C8.4599 21.65 7.9899 21.53 7.5499 21.29C6.6699 20.8 6.1399 19.91 6.1399 18.91V13.61C6.1399 13.11 5.8099 12.36 5.4999 11.98L1.7599 8.01998C1.1299 7.38998 0.649902 6.30998 0.649902 5.49998V3.19998C0.649902 1.59998 1.8599 0.349976 3.3999 0.349976H16.5999C18.1199 0.349976 19.3499 1.57998 19.3499 3.09998V5.29998C19.3499 6.34998 18.7199 7.53998 18.1299 8.12998L13.7999 11.96C13.3799 12.31 13.0499 13.08 13.0499 13.7V18C13.0499 18.89 12.4899 19.92 11.7899 20.34L10.4099 21.23C9.9599 21.51 9.4499 21.65 8.9399 21.65ZM3.3999 1.84998C2.6999 1.84998 2.1499 2.43998 2.1499 3.19998V5.49998C2.1499 5.86998 2.4499 6.58998 2.8299 6.96998L6.6399 10.98C7.1499 11.61 7.6499 12.66 7.6499 13.6V18.9C7.6499 19.55 8.0999 19.87 8.2899 19.97C8.7099 20.2 9.2199 20.2 9.6099 19.96L10.9999 19.07C11.2799 18.9 11.5599 18.36 11.5599 18V13.7C11.5599 12.63 12.0799 11.45 12.8299 10.82L17.1099 7.02998C17.4499 6.68998 17.8599 5.87998 17.8599 5.28998V3.09998C17.8599 2.40998 17.2999 1.84998 16.6099 1.84998H3.3999Z" fill="#292D32"/>
</svg>
