<svg width="14" height="14" viewBox="0 0 14 14" fill="none" xmlns="http://www.w3.org/2000/svg">
<g id="Frame" clip-path="url(#clip0_7682_78076)">
<path id="Vector" d="M9.93325 0H4.06678C1.82435 0 0 1.82435 0 4.06678V9.93322C0 12.1757 1.82435 14 4.06678 14H9.93322C12.1757 14 14 12.1757 14 9.93325V4.06678C14 1.82435 12.1757 0 9.93325 0ZM12.9062 9.93322C12.9062 11.5726 11.5726 12.9062 9.93325 12.9062H4.06678C2.42744 12.9062 1.09375 11.5726 1.09375 9.93325V4.06678C1.09375 2.42744 2.42744 1.09375 4.06678 1.09375H9.93322C11.5726 1.09375 12.9062 2.42744 12.9062 4.06678V9.93322Z" fill="#444444"/>
<path id="Vector_2" d="M6.99997 3.22656C4.91927 3.22656 3.22653 4.9193 3.22653 7C3.22653 9.0807 4.91927 10.7734 6.99997 10.7734C9.08067 10.7734 10.7734 9.0807 10.7734 7C10.7734 4.9193 9.08067 3.22656 6.99997 3.22656ZM6.99997 9.67969C5.5224 9.67969 4.32028 8.47757 4.32028 7C4.32028 5.52243 5.5224 4.32031 6.99997 4.32031C8.47754 4.32031 9.67966 5.52243 9.67966 7C9.67966 8.47757 8.47754 9.67969 6.99997 9.67969Z" fill="#444444"/>
<path id="Vector_3" d="M10.8282 3.71872C11.1302 3.71872 11.3751 3.47388 11.3751 3.17184C11.3751 2.86981 11.1302 2.62497 10.8282 2.62497C10.5262 2.62497 10.2813 2.86981 10.2813 3.17184C10.2813 3.47388 10.5262 3.71872 10.8282 3.71872Z" fill="#444444"/>
</g>
<defs>
<clipPath id="clip0_7682_78076">
<rect width="14" height="14" fill="white"/>
</clipPath>
</defs>
</svg>
