<svg width="24" height="25" viewBox="0 0 24 25" fill="none" xmlns="http://www.w3.org/2000/svg">
<g id="vuesax/outline/heart">
<g id="heart">
<path id="Vector" d="M12 22.15C11.69 22.15 11.39 22.11 11.14 22.02C7.32 20.71 1.25 16.06 1.25 9.18998C1.25 5.68998 4.08 2.84998 7.56 2.84998C9.25 2.84998 10.83 3.50998 12 4.68998C13.17 3.50998 14.75 2.84998 16.44 2.84998C19.92 2.84998 22.75 5.69998 22.75 9.18998C22.75 16.07 16.68 20.71 12.86 22.02C12.61 22.11 12.31 22.15 12 22.15ZM7.56 4.34998C4.91 4.34998 2.75 6.51998 2.75 9.18998C2.75 16.02 9.32 19.82 11.63 20.61C11.81 20.67 12.2 20.67 12.38 20.61C14.68 19.82 21.26 16.03 21.26 9.18998C21.26 6.51998 19.1 4.34998 16.45 4.34998C14.93 4.34998 13.52 5.05998 12.61 6.28998C12.33 6.66998 11.69 6.66998 11.41 6.28998C10.48 5.04998 9.08 4.34998 7.56 4.34998Z" fill="#292D32"/>
</g>
</g>
</svg>
