<svg width="54" height="54" viewBox="0 0 54 54" fill="none" xmlns="http://www.w3.org/2000/svg">
<rect width="54" height="54" rx="6" fill="white" fill-opacity="0.9"/>
<path d="M29.2002 27.4502H24.2002C23.7902 27.4502 23.4502 27.1102 23.4502 26.7002C23.4502 26.2902 23.7902 25.9502 24.2002 25.9502H29.2002C29.6102 25.9502 29.9502 26.2902 29.9502 26.7002C29.9502 27.1102 29.6102 27.4502 29.2002 27.4502Z" fill="#EF6351"/>
<path d="M26.7002 29.9502C26.2902 29.9502 25.9502 29.6102 25.9502 29.2002V24.2002C25.9502 23.7902 26.2902 23.4502 26.7002 23.4502C27.1102 23.4502 27.4502 23.7902 27.4502 24.2002V29.2002C27.4502 29.6102 27.1102 29.9502 26.7002 29.9502Z" fill="#EF6351"/>
<path d="M26.5 36.75C20.85 36.75 16.25 32.15 16.25 26.5C16.25 20.85 20.85 16.25 26.5 16.25C32.15 16.25 36.75 20.85 36.75 26.5C36.75 32.15 32.15 36.75 26.5 36.75ZM26.5 17.75C21.67 17.75 17.75 21.68 17.75 26.5C17.75 31.32 21.67 35.25 26.5 35.25C31.33 35.25 35.25 31.32 35.25 26.5C35.25 21.68 31.33 17.75 26.5 17.75Z" fill="#EF6351"/>
<path d="M36.9999 37.7504C36.8099 37.7504 36.6199 37.6804 36.4699 37.5304L34.4699 35.5304C34.1799 35.2404 34.1799 34.7604 34.4699 34.4704C34.7599 34.1804 35.2399 34.1804 35.5299 34.4704L37.5299 36.4704C37.8199 36.7604 37.8199 37.2404 37.5299 37.5304C37.3799 37.6804 37.1899 37.7504 36.9999 37.7504Z" fill="#EF6351"/>
</svg>
