<svg width="16" height="16" viewBox="0 0 16 16" fill="none" xmlns="http://www.w3.org/2000/svg">
<path d="M4.66675 5.33333C4.66675 3.49238 6.15913 2 8.00008 2C9.84103 2 11.3334 3.49238 11.3334 5.33333C11.3334 7.17428 9.84103 8.66667 8.00008 8.66667C6.15913 8.66667 4.66675 7.17428 4.66675 5.33333ZM8.00008 7.33333C9.10465 7.33333 10.0001 6.4379 10.0001 5.33333C10.0001 4.22876 9.10465 3.33333 8.00008 3.33333C6.89551 3.33333 6.00008 4.22876 6.00008 5.33333C6.00008 6.4379 6.89551 7.33333 8.00008 7.33333Z" fill="#9C0646"/>
<path d="M4.22885 10.8954C3.22865 11.8956 2.66675 13.2522 2.66675 14.6667H4.00008C4.00008 13.6058 4.42151 12.5884 5.17165 11.8382C5.9218 11.0881 6.93922 10.6667 8.00008 10.6667C9.06095 10.6667 10.0784 11.0881 10.8285 11.8382C11.5787 12.5884 12.0001 13.6058 12.0001 14.6667H13.3334C13.3334 13.2522 12.7715 11.8956 11.7713 10.8954C10.7711 9.89524 9.41457 9.33333 8.00008 9.33333C6.58559 9.33333 5.22904 9.89524 4.22885 10.8954Z" fill="#9C0646"/>
</svg>
