<svg width="20" height="20" viewBox="0 0 20 20" xmlns="http://www.w3.org/2000/svg">
<path d="M11.8334 10.375H7.66675C7.32508 10.375 7.04175 10.0917 7.04175 9.75C7.04175 9.40833 7.32508 9.125 7.66675 9.125H11.8334C12.1751 9.125 12.4584 9.40833 12.4584 9.75C12.4584 10.0917 12.1751 10.375 11.8334 10.375Z" fill="#2B0000"/>
<path d="M9.75024 12.4582C9.40858 12.4582 9.12524 12.1748 9.12524 11.8332V7.6665C9.12524 7.32484 9.40858 7.0415 9.75024 7.0415C10.0919 7.0415 10.3752 7.32484 10.3752 7.6665V11.8332C10.3752 12.1748 10.0919 12.4582 9.75024 12.4582Z" fill="#2B0000"/>
<path d="M9.58342 18.1248C4.87508 18.1248 1.04175 14.2915 1.04175 9.58317C1.04175 4.87484 4.87508 1.0415 9.58342 1.0415C14.2917 1.0415 18.1251 4.87484 18.1251 9.58317C18.1251 14.2915 14.2917 18.1248 9.58342 18.1248ZM9.58342 2.2915C5.55841 2.2915 2.29175 5.5665 2.29175 9.58317C2.29175 13.5998 5.55841 16.8748 9.58342 16.8748C13.6084 16.8748 16.8751 13.5998 16.8751 9.58317C16.8751 5.5665 13.6084 2.2915 9.58342 2.2915Z" fill="#2B0000"/>
<path d="M18.3333 18.9585C18.175 18.9585 18.0166 18.9002 17.8916 18.7752L16.225 17.1085C15.9833 16.8669 15.9833 16.4669 16.225 16.2252C16.4666 15.9835 16.8666 15.9835 17.1083 16.2252L18.775 17.8919C19.0166 18.1335 19.0166 18.5335 18.775 18.7752C18.65 18.9002 18.4916 18.9585 18.3333 18.9585Z" fill="#2B0000"/>
</svg>
