<svg width="36" height="36" viewBox="0 0 36 36" fill="none" xmlns="http://www.w3.org/2000/svg">
<g id="Group">
<path id="Vector" d="M23.7582 23.2845C24.3688 23.1888 25.6321 22.9678 25.8738 22.4115C25.9956 22.125 25.8216 21.892 25.5993 21.8565V21.8559C23.4516 21.5024 22.4836 19.3025 22.4441 19.2088C21.8489 18.1416 23.4643 18.3211 24.0997 17.6703C24.7196 17.0323 23.7254 16.3414 23.1035 16.6347C22.8484 16.7545 22.4662 16.8937 22.2118 16.7773C22.272 15.767 22.4387 14.092 22.0297 13.1775C20.6539 10.096 16.5969 9.98483 14.7117 11.7736C13.2262 13.1822 13.4083 14.6303 13.5475 16.7773C13.0856 16.9788 12.629 16.5784 12.2963 16.5784C11.9468 16.5784 11.5404 16.8054 11.4748 17.1475C11.3918 17.5967 11.8799 17.8859 12.3023 18.0526C13.022 18.3351 13.7062 18.4188 13.3266 19.19C13.3232 19.1961 13.3206 19.2021 13.3185 19.2081C12.781 20.4359 11.6074 21.6162 10.1627 21.8545C9.92969 21.8927 9.77035 22.1384 9.88684 22.4095V22.4108C10.1258 22.9678 11.4012 23.1908 12.003 23.2845C12.1891 23.6326 12.0466 24.3202 12.623 24.3202C12.8472 24.3202 13.2811 24.1736 13.8347 24.1736C14.6414 24.1736 14.9166 24.3496 15.5633 24.8062C16.2274 25.2755 16.9571 25.7341 17.8642 25.6678C18.8089 25.7267 19.5105 25.2922 20.1987 24.8075L20.1993 24.8062C20.8702 24.3342 21.3495 23.9854 22.7701 24.2646C23.8212 24.4681 23.5146 23.7565 23.7582 23.2845Z" fill="#444444"/>
</g>
</svg>
