<svg width="25" height="25" viewBox="0 0 24 25" xmlns="http://www.w3.org/2000/svg">
<g id="vuesax/outline/bag-2">
<g id="bag-2">
<path id="Vector" d="M16.5 9.20134C16.09 9.20134 15.75 8.86134 15.75 8.45134V7.07134C15.75 6.02134 15.3 5.00134 14.52 4.29134C13.73 3.57134 12.71 3.24134 11.63 3.34134C9.83 3.51134 8.25 5.35134 8.25 7.27134V8.24134C8.25 8.65134 7.91 8.99134 7.5 8.99134C7.09 8.99134 6.75 8.65134 6.75 8.24134V7.26134C6.75 4.57134 8.92 2.09134 11.49 1.84134C12.99 1.70134 14.43 2.17134 15.53 3.18134C16.62 4.17134 17.25 5.59134 17.25 7.07134V8.45134C17.25 8.86134 16.91 9.20134 16.5 9.20134Z"/>
<path id="Vector_2" d="M14.9998 23.3213H8.99982C4.37982 23.3213 3.51982 21.1713 3.29982 19.0813L2.54982 13.0913C2.43982 12.0113 2.39982 10.4613 3.44982 9.30129C4.34982 8.30129 5.83982 7.82129 7.99982 7.82129H15.9998C18.1698 7.82129 19.6598 8.31129 20.5498 9.30129C21.5898 10.4613 21.5598 12.0113 21.4498 13.0713L20.6998 19.0813C20.4798 21.1713 19.6198 23.3213 14.9998 23.3213ZM7.99982 9.32129C6.30982 9.32129 5.14982 9.65129 4.55982 10.3113C4.06982 10.8513 3.90982 11.6813 4.03982 12.9213L4.78982 18.9113C4.95982 20.5113 5.39982 21.8313 8.99982 21.8313H14.9998C18.5998 21.8313 19.0398 20.5213 19.2098 18.9313L19.9598 12.9213C20.0898 11.7013 19.9298 10.8713 19.4398 10.3213C18.8498 9.65129 17.6898 9.32129 15.9998 9.32129H7.99982Z"/>
<path id="Vector_3" d="M15.4202 13.7213C14.8602 13.7213 14.4102 13.2713 14.4102 12.7213C14.4102 12.1713 14.8602 11.7213 15.4102 11.7213C15.9602 11.7213 16.4102 12.1713 16.4102 12.7213C16.4102 13.2713 15.9702 13.7213 15.4202 13.7213Z"/>
<path id="Vector_4" d="M8.42016 13.7213C7.86016 13.7213 7.41016 13.2713 7.41016 12.7213C7.41016 12.1713 7.86016 11.7213 8.41016 11.7213C8.96016 11.7213 9.41016 12.1713 9.41016 12.7213C9.41016 13.2713 8.97016 13.7213 8.42016 13.7213Z"/>
</g>
</g>
</svg>
