<svg width="36" height="36" viewBox="0 0 36 36" fill="none" xmlns="http://www.w3.org/2000/svg">
<g id="Group">
<path id="Vector" d="M23.4435 15.3814C24.0447 14.9545 24.5505 14.4217 24.9626 13.8081V13.8075C24.4125 14.0484 23.8273 14.2085 23.2162 14.2862C23.8445 13.911 24.3244 13.3215 24.5498 12.6112C23.964 12.9605 23.3172 13.2069 22.6279 13.3449C22.0716 12.7523 21.2788 12.3857 20.4139 12.3857C18.7358 12.3857 17.3849 13.7478 17.3849 15.4172C17.3849 15.6574 17.4052 15.8884 17.4551 16.1083C14.9356 15.9851 12.7056 14.7777 11.2075 12.9377C10.9463 13.3917 10.7923 13.911 10.7923 14.4697C10.7923 15.5194 11.3325 16.4496 12.1389 16.9886C11.6516 16.9794 11.1742 16.8377 10.7695 16.6153V16.6486C10.7695 18.1215 11.8198 19.3449 13.1978 19.6271C12.9508 19.6948 12.6822 19.7269 12.4032 19.7269C12.2091 19.7269 12.0132 19.7158 11.8296 19.6751C12.2221 20.8751 13.337 21.7579 14.6615 21.7868C13.6303 22.5932 12.3206 23.0792 10.9032 23.0792C10.6549 23.0792 10.4165 23.0681 10.1781 23.038C11.521 23.9035 13.1116 24.3981 14.8278 24.3981C20.1767 24.3981 23.6628 19.9357 23.4435 15.3814Z" fill="#444444"/>
</g>
</svg>
