<svg width="22" height="21" viewBox="0 0 22 21" fill="none" xmlns="http://www.w3.org/2000/svg">
<g id="Group">
<path id="Vector" d="M21.5 10.5C21.5 4.70101 16.799 0 11 0C5.20101 0 0.5 4.70101 0.5 10.5C0.5 15.7409 4.3397 20.0847 9.35938 20.8724V13.5352H6.69336V10.5H9.35938V8.18672C9.35938 5.55516 10.927 4.10156 13.3254 4.10156C14.4742 4.10156 15.6758 4.30664 15.6758 4.30664V6.89062H14.3518C13.0474 6.89062 12.6406 7.70001 12.6406 8.53037V10.5H15.5527L15.0872 13.5352H12.6406V20.8724C17.6603 20.0847 21.5 15.7409 21.5 10.5Z" fill="#1877F2"/>
<path id="Vector_2" d="M15.0872 13.5352L15.5527 10.5H12.6406V8.53037C12.6406 7.70001 13.0474 6.89062 14.3518 6.89062H15.6758V4.30664C15.6758 4.30664 14.4742 4.10156 13.3254 4.10156C10.927 4.10156 9.35937 5.55516 9.35937 8.18672V10.5H6.69336V13.5352H9.35937V20.8724C9.89395 20.9563 10.4419 21 11 21C11.5581 21 12.106 20.9563 12.6406 20.8724V13.5352H15.0872Z" fill="white"/>
</g>
</svg>
