<svg width="31" height="30" viewBox="0 0 31 30" fill="none" xmlns="http://www.w3.org/2000/svg">
<g id="Group">
<path id="Back" d="M0.5 15C0.5 6.71573 7.21573 0 15.5 0C23.7843 0 30.5 6.71573 30.5 15C30.5 23.2843 23.7843 30 15.5 30C7.21573 30 0.5 23.2843 0.5 15Z" fill="white"/>
<path id="Path" d="M15.5 10.3998C16.9084 10.3998 17.8584 11.0081 18.4001 11.5165L20.5169 9.44976C19.2168 8.24139 17.5251 7.49969 15.5 7.49969C12.5666 7.49969 10.0332 9.18308 8.7998 11.6332L11.2249 13.5166C11.8332 11.7082 13.5166 10.3998 15.5 10.3998Z" fill="#EA4335"/>
<path id="Path_2" d="M22.7002 15.1668C22.7002 14.5501 22.6502 14.1001 22.5419 13.6334H15.5V16.4168H19.6335C19.5501 17.1085 19.1001 18.1502 18.1001 18.8503L20.4668 20.6837C21.8835 19.3753 22.7002 17.4502 22.7002 15.1668Z" fill="#4285F4"/>
<path id="Path_3" d="M11.233 16.4835C11.0746 16.0168 10.9829 15.5168 10.9829 15.0001C10.9829 14.4834 11.0746 13.9834 11.2246 13.5167L8.79954 11.6333C8.29119 12.65 7.99951 13.7917 7.99951 15.0001C7.99951 16.2085 8.29119 17.3502 8.79954 18.3669L11.233 16.4835Z" fill="#FBBC05"/>
<path id="Path_4" d="M15.5 22.5003C17.5251 22.5003 19.2251 21.8336 20.4668 20.6836L18.1001 18.8502C17.4667 19.2919 16.6167 19.6002 15.5 19.6002C13.5166 19.6002 11.8332 18.2919 11.2332 16.4835L8.80811 18.3669C10.0415 20.8169 12.5666 22.5003 15.5 22.5003Z" fill="#34A853"/>
</g>
</svg>
