<svg width="38" height="39" viewBox="0 0 38 39" fill="none" xmlns="http://www.w3.org/2000/svg">
<g id="face">
<path id="Ellipse" d="M37.3706 19.2127C37.3706 29.358 29.1458 37.5826 19 37.5826C8.85417 37.5826 0.629384 29.358 0.629384 19.2127C0.629384 9.06727 8.85417 0.842763 19 0.842763C29.1458 0.842763 37.3706 9.06727 37.3706 19.2127Z" stroke="white" stroke-width="1.25877"/>
<path id="Vector" d="M21.1683 13.9161H22.4272V11.5403C22.21 11.5079 21.4631 11.4351 20.5932 11.4351C18.7781 11.4351 17.5347 12.6721 17.5347 14.9458V17.0383H15.5317V19.6942H17.5347V26.3771H19.9904V19.6949H21.9124L22.2175 17.0389H19.9898V15.2092C19.9904 14.4415 20.1812 13.9161 21.1683 13.9161Z" fill="white"/>
</g>
</svg>
