<svg width="38" height="39" viewBox="0 0 38 39" fill="none" xmlns="http://www.w3.org/2000/svg">
<path d="M37.3706 19.3352C37.3706 29.4806 29.1458 37.7051 19 37.7051C8.85417 37.7051 0.629384 29.4806 0.629384 19.3352C0.629384 9.18983 8.85417 0.965322 19 0.965322C29.1458 0.965322 37.3706 9.18983 37.3706 19.3352Z" stroke="white" stroke-width="1.25877"/>
<g clip-path="url(#clip0_8117_83034)">
<path d="M22.5216 11.3018H16.4463C14.1241 11.3018 12.2349 13.3489 12.2349 15.8651V22.4479C12.2349 24.9642 14.1241 27.0113 16.4463 27.0113H22.5215C24.8437 27.0113 26.733 24.9642 26.733 22.448V15.8651C26.733 13.3489 24.8437 11.3018 22.5216 11.3018ZM25.6003 22.4479C25.6003 24.2875 24.2192 25.784 22.5216 25.784H16.4463C14.7487 25.784 13.3675 24.2875 13.3675 22.448V15.8651C13.3675 14.0256 14.7487 12.5291 16.4463 12.5291H22.5215C24.2192 12.5291 25.6003 14.0256 25.6003 15.8651V22.4479Z" fill="white"/>
<path d="M19.4839 14.9219C17.3291 14.9219 15.5762 16.8213 15.5762 19.1561C15.5762 21.4909 17.3291 23.3903 19.4839 23.3903C21.6386 23.3903 23.3916 21.4909 23.3916 19.1561C23.3916 16.8213 21.6386 14.9219 19.4839 14.9219ZM19.4839 22.163C17.9537 22.163 16.7088 20.8141 16.7088 19.1561C16.7088 17.4981 17.9537 16.1492 19.4839 16.1492C21.014 16.1492 22.2589 17.4981 22.2589 19.1561C22.2589 20.8141 21.014 22.163 19.4839 22.163Z" fill="white"/>
<path d="M23.4483 15.4744C23.7611 15.4744 24.0146 15.1996 24.0146 14.8607C24.0146 14.5218 23.7611 14.2471 23.4483 14.2471C23.1355 14.2471 22.882 14.5218 22.882 14.8607C22.882 15.1996 23.1355 15.4744 23.4483 15.4744Z" fill="white"/>
</g>
<defs>
<clipPath id="clip0_8117_83034">
<rect width="14.4981" height="15.7096" fill="white" transform="translate(12.2349 11.3018)"/>
</clipPath>
</defs>
</svg>
