<svg viewBox="0 0 27 18" fill="none" xmlns="http://www.w3.org/2000/svg">
<rect width="27" height="18" fill="#B3B3B3"/>
<g clip-path="url(#clip0_6829_76443)">
<rect width="1920" height="7827" transform="translate(-345 -7777)" fill="white"/>
<rect x="-345" y="-329.211" width="1920" height="379.211" fill="#2B0000"/>
<path fill-rule="evenodd" clip-rule="evenodd" d="M24.6727 0.977051H1.33366C0.666829 0.977051 0 1.64388 0 2.31071V15.6473C0 16.981 0.666829 17.6478 2.00049 17.6478H24.6727C26.0063 17.6478 26.6732 16.981 26.6732 15.6473V2.97754C26.6732 1.64388 26.0063 0.977051 24.6727 0.977051Z" fill="white"/>
<path fill-rule="evenodd" clip-rule="evenodd" d="M24.93 9.39593C24.9312 13.2699 21.8251 16.411 17.9925 16.4118C14.1597 16.4128 11.0523 13.2734 11.0513 9.39943V9.39593C11.0503 5.52215 14.1564 2.38088 17.9888 2.37988C21.8214 2.37888 24.929 5.51848 24.93 9.39243V9.39593Z" fill="#DFAC16"/>
<path fill-rule="evenodd" clip-rule="evenodd" d="M8.63752 2.38184C4.82759 2.40634 1.74268 5.53927 1.74268 9.39605C1.74268 13.2678 4.8516 16.4103 8.6822 16.4103C10.48 16.4103 12.1187 15.7176 13.3518 14.5826L13.3513 14.5823H13.3528C13.6057 14.3495 13.8411 14.0985 14.0573 13.8313H12.6355C12.4476 13.6019 12.2748 13.3605 12.1182 13.1086H14.5701C14.7198 12.8667 14.8547 12.6159 14.9741 12.3576H11.7133C11.6027 12.1177 11.5058 11.8717 11.4232 11.6208H15.2645C15.5017 10.9031 15.6223 10.1519 15.6216 9.39605C15.6218 8.89111 15.5682 8.38758 15.4617 7.89401H11.2197C11.2722 7.64495 11.3385 7.39889 11.4175 7.15717H15.2601C15.1749 6.90132 15.075 6.65057 14.9611 6.40615H11.7128C11.8302 6.15253 11.9632 5.90644 12.111 5.6693H14.5611C14.3983 5.40742 14.2184 5.15654 14.0227 4.91829H12.6565C12.8701 4.66464 13.1028 4.42778 13.3527 4.20978C12.1195 3.0745 10.4805 2.38184 8.68203 2.38184H8.63752Z" fill="#BF3126"/>
<path fill-rule="evenodd" clip-rule="evenodd" d="M11.1774 11.1817L11.2697 10.5469C11.2192 10.5469 11.145 10.5689 11.0793 10.5689C10.8221 10.5689 10.7938 10.4305 10.8103 10.3283L11.018 9.03299H11.4089L11.5033 8.33099H11.1347L11.2097 7.89422H10.4709C10.4545 7.91089 10.0347 10.3501 10.0347 10.6472C10.0347 11.0868 10.279 11.2827 10.6234 11.2795C10.8931 11.2774 11.1032 11.2019 11.1774 11.1817ZM11.4114 9.97139C11.4114 11.0268 12.1006 11.2775 12.6877 11.2775C13.2297 11.2775 13.4683 11.1552 13.4683 11.1552L13.5983 10.435C13.5983 10.435 13.186 10.6184 12.8138 10.6184C12.0202 10.6184 12.1593 10.0206 12.1593 10.0206H13.6608C13.6608 10.0206 13.7578 9.53661 13.7578 9.3394C13.7578 8.84728 13.5154 8.2478 12.7042 8.2478C11.9614 8.2478 11.4114 9.05683 11.4114 9.97139ZM12.7071 8.91663C13.124 8.91663 13.0472 9.39008 13.0472 9.42842H12.227C12.227 9.37958 12.3043 8.91663 12.7071 8.91663ZM17.3859 11.1813L17.5181 10.3673C17.5181 10.3673 17.1555 10.551 16.9068 10.551C16.3826 10.551 16.1724 10.1464 16.1724 9.71182C16.1724 8.83028 16.6234 8.34516 17.1253 8.34516C17.5019 8.34516 17.804 8.55888 17.804 8.55888L17.9247 7.76785C17.9247 7.76785 17.4766 7.58447 17.0925 7.58447C16.2394 7.58447 15.4097 8.33249 15.4097 9.73716C15.4097 10.6686 15.8578 11.2837 16.7396 11.2837C16.9888 11.2837 17.3859 11.1813 17.3859 11.1813ZM7.11354 8.2593C6.60692 8.2593 6.21849 8.42401 6.21849 8.42401L6.11129 9.06733C6.11129 9.06733 6.43187 8.93564 6.91649 8.93564C7.19156 8.93564 7.39277 8.96698 7.39277 9.19286C7.39277 9.33023 7.3681 9.38091 7.3681 9.38091C7.3681 9.38091 7.15121 9.36257 7.05069 9.36257C6.4117 9.36257 5.74037 9.63814 5.74037 10.4692C5.74037 11.124 6.18081 11.2744 6.45371 11.2744C6.975 11.2744 7.19973 10.9325 7.21173 10.9313L7.18739 11.2167H7.83788L8.12812 9.16002C8.12812 8.28748 7.3751 8.2593 7.11354 8.2593ZM7.27191 9.93405C7.28591 10.0596 7.19389 10.6486 6.74912 10.6486C6.51956 10.6486 6.45988 10.4713 6.45988 10.3665C6.45988 10.1621 6.56991 9.91671 7.1112 9.91671C7.23707 9.91687 7.25057 9.93054 7.27191 9.93405ZM8.81962 11.2592C8.98616 11.2592 9.93756 11.302 9.93756 10.3096C9.93756 9.38191 9.05685 9.56529 9.05685 9.1927C9.05685 9.00699 9.20021 8.94864 9.46278 8.94864C9.56697 8.94864 9.96757 8.98198 9.96757 8.98198L10.0609 8.32265C10.0609 8.32265 9.80153 8.26397 9.37909 8.26397C8.83262 8.26397 8.27782 8.48453 8.27782 9.23921C8.27782 10.0941 9.20288 10.0084 9.20288 10.3685C9.20288 10.6089 8.94448 10.6285 8.74527 10.6285C8.40052 10.6285 8.09011 10.509 8.08911 10.5147L7.99059 11.1673C8.00842 11.173 8.1998 11.2592 8.81962 11.2592ZM23.506 7.66766L23.3467 8.66724C23.3467 8.66724 23.0686 8.27881 22.6332 8.27881C21.9563 8.27881 21.392 9.10401 21.392 10.0519C21.392 10.6637 21.6929 11.2634 22.3082 11.2634C22.7508 11.2634 22.9961 10.9516 22.9961 10.9516L22.9636 11.2179H23.6822L24.2467 7.66649L23.506 7.66766ZM23.1629 9.61647C23.1629 10.0111 22.9697 10.538 22.5691 10.538C22.3032 10.538 22.1787 10.3123 22.1787 9.95822C22.1787 9.37924 22.4359 8.99732 22.7605 8.99732C23.0266 8.99732 23.1629 9.1817 23.1629 9.61647ZM3.1129 11.221L3.56267 8.53971L3.62869 11.221H4.13781L5.08738 8.53971L4.66678 11.221H5.42313L6.00577 7.66483H4.83582L4.10731 9.84669L4.06946 7.66483H2.99137L2.40039 11.221H3.1129ZM14.4967 11.2259C14.7117 9.98973 14.7517 8.98598 15.2649 9.16969C15.3549 8.69124 15.4416 8.5062 15.5394 8.30365C15.5394 8.30365 15.4936 8.29381 15.3971 8.29381C15.0661 8.29381 14.8209 8.75076 14.8209 8.75076L14.8869 8.33115H14.1989L13.738 11.2259H14.4967ZM19.0908 8.2593C18.584 8.2593 18.1956 8.42401 18.1956 8.42401L18.0885 9.06733C18.0885 9.06733 18.4091 8.93564 18.8937 8.93564C19.1688 8.93564 19.3699 8.96698 19.3699 9.19286C19.3699 9.33023 19.3454 9.38091 19.3454 9.38091C19.3454 9.38091 19.1285 9.36257 19.0278 9.36257C18.389 9.36257 17.7176 9.63814 17.7176 10.4692C17.7176 11.124 18.1579 11.2744 18.4308 11.2744C18.9521 11.2744 19.1768 10.9325 19.1888 10.9313L19.1646 11.2167H19.8151L20.1052 9.16002C20.1054 8.28748 19.3524 8.2593 19.0908 8.2593ZM19.2492 9.93405C19.2633 10.0596 19.1713 10.6486 18.7262 10.6486C18.4968 10.6486 18.4373 10.4713 18.4373 10.3665C18.4373 10.1621 18.5472 9.91671 19.0885 9.91671C19.2143 9.91687 19.2278 9.93054 19.2492 9.93405ZM20.7 11.2259C20.9151 9.98973 20.9551 8.98598 21.468 9.16969C21.5581 8.69124 21.6447 8.5062 21.7428 8.30365C21.7428 8.30365 21.6968 8.29381 21.6004 8.29381C21.2695 8.29381 21.0243 8.75076 21.0243 8.75076L21.0901 8.33115H20.4023L19.9413 11.2259H20.7Z" fill="white"/>
</g>
<defs>
<clipPath id="clip0_6829_76443">
<rect width="1920" height="7827" fill="white" transform="translate(-345 -7777)"/>
</clipPath>
</defs>
</svg>
