<svg width="38" height="39" viewBox="0 0 38 39" fill="none" xmlns="http://www.w3.org/2000/svg">
<g id="snap">
<path id="Ellipse" d="M37.3706 19.3352C37.3706 29.4806 29.1458 37.7051 19 37.7051C8.85417 37.7051 0.629384 29.4806 0.629384 19.3352C0.629384 9.18983 8.85417 0.965322 19 0.965322C29.1458 0.965322 37.3706 9.18983 37.3706 19.3352Z" stroke="white" stroke-width="1.25877"/>
<path id="Vector" d="M24.9105 25.2864C25.521 25.1827 26.7843 24.9433 27.026 24.3405C27.1478 24.03 26.9738 23.7776 26.7515 23.7391C24.6039 23.3561 23.6358 20.9717 23.5963 20.8701C23.0011 19.7138 24.6166 19.9082 25.2519 19.2031C25.8718 18.5118 24.8777 17.7632 24.2557 18.0809C24.0007 18.2108 23.6184 18.3616 23.364 18.2354C23.4242 17.1408 23.5909 15.3258 23.1819 14.3349C21.8061 10.9958 17.7492 10.8754 15.8639 12.8137C14.3784 14.34 14.5605 15.909 14.6997 18.2354C14.2378 18.4538 13.7812 18.02 13.4485 18.02C13.099 18.02 12.6927 18.2659 12.627 18.6366C12.544 19.1233 13.0321 19.4367 13.4545 19.6173C14.1742 19.9235 14.8584 20.0141 14.4788 20.8498C14.4755 20.8563 14.4728 20.8629 14.4708 20.8694C13.9332 22.1998 12.7596 23.4787 11.3149 23.7369C11.0819 23.7783 10.9226 24.0445 11.0391 24.3383V24.3397C11.2781 24.9433 12.5534 25.1848 13.1553 25.2864C13.3414 25.6636 13.1988 26.4086 13.7752 26.4086C13.9995 26.4086 14.4333 26.2497 14.9869 26.2497C15.7936 26.2497 16.0688 26.4405 16.7155 26.9353C17.3796 27.4438 18.1093 27.9407 19.0165 27.8689C19.9611 27.9327 20.6627 27.4619 21.3509 26.9367L21.3516 26.9353C22.0224 26.4238 22.5017 26.0459 23.9223 26.3484C24.9734 26.5689 24.6668 25.7978 24.9105 25.2864Z" fill="white"/>
</g>
</svg>
