<svg width="38" height="39" viewBox="0 0 38 39" fill="none" xmlns="http://www.w3.org/2000/svg">
<g id="tweter">
<path id="Ellipse" d="M37.3706 19.3352C37.3706 29.4806 29.1458 37.7051 19 37.7051C8.85417 37.7051 0.629384 29.4806 0.629384 19.3352C0.629384 9.18983 8.85417 0.965322 19 0.965322C29.1458 0.965322 37.3706 9.18983 37.3706 19.3352Z" stroke="white" stroke-width="1.25877"/>
<path id="Vector" d="M25.5759 17.0019C26.1772 16.5393 26.6829 15.9619 27.095 15.2971V15.2964C26.5449 15.5574 25.9597 15.731 25.3486 15.8151C25.9769 15.4086 26.4568 14.7698 26.6823 14.0002C26.0965 14.3786 25.4496 14.6456 24.7603 14.7951C24.204 14.153 23.4112 13.7559 22.5463 13.7559C20.8683 13.7559 19.5174 15.2317 19.5174 17.0406C19.5174 17.3009 19.5377 17.5512 19.5876 17.7895C17.0681 17.656 14.8381 16.3477 13.3399 14.3539C13.0787 14.8459 12.9247 15.4086 12.9247 16.014C12.9247 17.1514 13.465 18.1593 14.2713 18.7434C13.7841 18.7334 13.3067 18.5798 12.9019 18.3389V18.3749C12.9019 19.9709 13.9522 21.2965 15.3303 21.6022C15.0833 21.6757 14.8147 21.7104 14.5356 21.7104C14.3416 21.7104 14.1457 21.6984 13.9621 21.6543C14.3545 22.9546 15.4695 23.9111 16.7939 23.9425C15.7627 24.8162 14.4531 25.3429 13.0356 25.3429C12.7873 25.3429 12.5489 25.3309 12.3105 25.2982C13.6535 26.236 15.244 26.772 16.9603 26.772C22.3092 26.772 25.7952 21.9367 25.5759 17.0019Z" fill="white"/>
</g>
</svg>
