<svg width="30" height="30" viewBox="0 0 30 30" fill="none" xmlns="http://www.w3.org/2000/svg">
<path d="M15.0016 17.7123C12.3391 17.7123 10.1641 15.5498 10.1641 12.8748C10.1641 10.1998 12.3391 8.0498 15.0016 8.0498C17.6641 8.0498 19.8391 10.2123 19.8391 12.8873C19.8391 15.5623 17.6641 17.7123 15.0016 17.7123ZM15.0016 9.9248C13.3766 9.9248 12.0391 11.2498 12.0391 12.8873C12.0391 14.5248 13.3641 15.8498 15.0016 15.8498C16.6391 15.8498 17.9641 14.5248 17.9641 12.8873C17.9641 11.2498 16.6266 9.9248 15.0016 9.9248Z" fill="white"/>
<path d="M14.9981 28.45C13.1481 28.45 11.2856 27.75 9.83564 26.3625C6.14814 22.8125 2.07315 17.15 3.61065 10.4125C4.99815 4.3 10.3356 1.5625 14.9981 1.5625C14.9981 1.5625 14.9981 1.5625 15.0106 1.5625C19.6731 1.5625 25.0106 4.3 26.3981 10.425C27.9231 17.1625 23.8481 22.8125 20.1606 26.3625C18.7106 27.75 16.8481 28.45 14.9981 28.45ZM14.9981 3.4375C11.3606 3.4375 6.68565 5.375 5.44815 10.825C4.09815 16.7125 7.79814 21.7875 11.1481 25C13.3106 27.0875 16.6981 27.0875 18.8606 25C22.1981 21.7875 25.8981 16.7125 24.5731 10.825C23.3231 5.375 18.6356 3.4375 14.9981 3.4375Z" fill="white"/>
</svg>
