<svg width="30" height="30" viewBox="0 0 30 30" fill="none" xmlns="http://www.w3.org/2000/svg">
<g clip-path="url(#clip0_8430_23017)">
<path d="M21.25 26.5625H8.75C8.2375 26.5625 7.8125 26.1375 7.8125 25.625C7.8125 25.1125 8.2375 24.6875 8.75 24.6875H21.25C24.825 24.6875 26.5625 22.95 26.5625 19.375V10.625C26.5625 7.05 24.825 5.3125 21.25 5.3125H8.75C5.175 5.3125 3.4375 7.05 3.4375 10.625C3.4375 11.1375 3.0125 11.5625 2.5 11.5625C1.9875 11.5625 1.5625 11.1375 1.5625 10.625C1.5625 6.0625 4.1875 3.4375 8.75 3.4375H21.25C25.8125 3.4375 28.4375 6.0625 28.4375 10.625V19.375C28.4375 23.9375 25.8125 26.5625 21.25 26.5625Z" fill="white"/>
<path d="M14.9995 16.087C13.9495 16.087 12.887 15.762 12.0745 15.0995L8.16198 11.9745C7.76198 11.6495 7.68698 11.062 8.01198 10.662C8.33698 10.262 8.92447 10.187 9.32447 10.512L13.237 13.637C14.187 14.3995 15.7995 14.3995 16.7495 13.637L20.662 10.512C21.062 10.187 21.662 10.2495 21.9745 10.662C22.2995 11.062 22.237 11.662 21.8245 11.9745L17.912 15.0995C17.112 15.762 16.0495 16.087 14.9995 16.087Z" fill="white"/>
<path d="M10 21.5625H2.5C1.9875 21.5625 1.5625 21.1375 1.5625 20.625C1.5625 20.1125 1.9875 19.6875 2.5 19.6875H10C10.5125 19.6875 10.9375 20.1125 10.9375 20.625C10.9375 21.1375 10.5125 21.5625 10 21.5625Z" fill="white"/>
<path d="M6.25 16.5625H2.5C1.9875 16.5625 1.5625 16.1375 1.5625 15.625C1.5625 15.1125 1.9875 14.6875 2.5 14.6875H6.25C6.7625 14.6875 7.1875 15.1125 7.1875 15.625C7.1875 16.1375 6.7625 16.5625 6.25 16.5625Z" fill="white"/>
</g>
<defs>
<clipPath id="clip0_8430_23017">
<rect width="30" height="30" fill="white"/>
</clipPath>
</defs>
</svg>
