<svg width="16" height="16" viewBox="0 0 16 16" fill="none" xmlns="http://www.w3.org/2000/svg">
<g id="Iconsax/Linear/edit" clip-path="url(#clip0_8329_18368)">
<path id="Vector" d="M7.33247 1.33301H5.99925C2.66622 1.33301 1.33301 2.66634 1.33301 5.99967V9.99967C1.33301 13.333 2.66622 14.6663 5.99925 14.6663H9.99889C13.3319 14.6663 14.6651 13.333 14.6651 9.99967V8.66634" stroke="#3B352F" stroke-width="1.5" stroke-linecap="round" stroke-linejoin="round"/>
<path id="Vector_2" d="M10.6927 2.0135L5.43985 7.26684C5.23987 7.46684 5.03989 7.86017 4.99989 8.14684L4.71325 10.1535C4.60659 10.8802 5.11988 11.3868 5.84648 11.2868L7.85297 11.0002C8.13294 10.9602 8.52624 10.7602 8.73289 10.5602L13.9857 5.30684C14.8923 4.40017 15.319 3.34684 13.9857 2.0135C12.6525 0.680168 11.5993 1.10684 10.6927 2.0135V2.0135Z" stroke="#3B352F" stroke-width="1.5" stroke-miterlimit="10" stroke-linecap="round" stroke-linejoin="round"/>
<path id="Vector_3" d="M9.94043 2.7666C10.1614 3.55158 10.5802 4.26664 11.1567 4.8433C11.7332 5.41995 12.4481 5.83887 13.2328 6.05993" stroke="#3B352F" stroke-width="1.5" stroke-miterlimit="10" stroke-linecap="round" stroke-linejoin="round"/>
</g>
<defs>
<clipPath id="clip0_8329_18368">
<rect width="16" height="16" fill="white"/>
</clipPath>
</defs>
</svg>
