<svg width="25" height="24" viewBox="0 0 25 24" fill="none" xmlns="http://www.w3.org/2000/svg">
<g id="vuesax/outline/bag-2">
<g id="bag-2">
<path id="Vector" d="M17 8.62981C16.59 8.62981 16.25 8.28981 16.25 7.87981V6.49981C16.25 5.44981 15.8 4.42981 15.02 3.71981C14.23 2.99981 13.21 2.66981 12.13 2.76981C10.33 2.93981 8.75 4.77981 8.75 6.69981V7.66981C8.75 8.07981 8.41 8.41981 8 8.41981C7.59 8.41981 7.25 8.07981 7.25 7.66981V6.68981C7.25 3.99981 9.42 1.51981 11.99 1.26981C13.49 1.12981 14.93 1.59981 16.03 2.60981C17.12 3.59981 17.75 5.01981 17.75 6.49981V7.87981C17.75 8.28981 17.41 8.62981 17 8.62981Z" fill="#EF6351"/>
<path id="Vector_2" d="M15.5 22.75H9.5C4.88 22.75 4.02 20.6 3.8 18.51L3.05 12.52C2.94 11.44 2.9 9.89 3.95 8.73C4.85 7.73 6.34 7.25 8.5 7.25H16.5C18.67 7.25 20.16 7.74 21.05 8.73C22.09 9.89 22.06 11.44 21.95 12.5L21.2 18.51C20.98 20.6 20.12 22.75 15.5 22.75ZM8.5 8.75C6.81 8.75 5.65 9.08 5.06 9.74C4.57 10.28 4.41 11.11 4.54 12.35L5.29 18.34C5.46 19.94 5.9 21.26 9.5 21.26H15.5C19.1 21.26 19.54 19.95 19.71 18.36L20.46 12.35C20.59 11.13 20.43 10.3 19.94 9.75C19.35 9.08 18.19 8.75 16.5 8.75H8.5Z" fill="#EF6351"/>
<path id="Vector_3" d="M15.92 13.1504C15.36 13.1504 14.91 12.7004 14.91 12.1504C14.91 11.6004 15.36 11.1504 15.91 11.1504C16.46 11.1504 16.91 11.6004 16.91 12.1504C16.91 12.7004 16.47 13.1504 15.92 13.1504Z" fill="#EF6351"/>
<path id="Vector_4" d="M8.91997 13.1504C8.35997 13.1504 7.90997 12.7004 7.90997 12.1504C7.90997 11.6004 8.35997 11.1504 8.90997 11.1504C9.45997 11.1504 9.90997 11.6004 9.90997 12.1504C9.90997 12.7004 9.46997 13.1504 8.91997 13.1504Z" fill="#EF6351"/>
</g>
</g>
</svg>
