<svg width="14" height="15" viewBox="0 0 14 15" fill="none" xmlns="http://www.w3.org/2000/svg">
<g id="vuesax/outline/global">
<g id="global">
<path id="Vector" d="M6.99984 13.8407C3.54067 13.8407 0.729004 11.0291 0.729004 7.56991C0.729004 4.11074 3.54067 1.29907 6.99984 1.29907C10.459 1.29907 13.2707 4.11074 13.2707 7.56991C13.2707 11.0291 10.459 13.8407 6.99984 13.8407ZM6.99984 2.17407C4.02484 2.17407 1.604 4.59491 1.604 7.56991C1.604 10.5449 4.02484 12.9657 6.99984 12.9657C9.97484 12.9657 12.3957 10.5449 12.3957 7.56991C12.3957 4.59491 9.97484 2.17407 6.99984 2.17407Z" fill="white"/>
<path id="Vector_2" d="M5.25014 13.2574H4.6668C4.42764 13.2574 4.2293 13.0591 4.2293 12.8199C4.2293 12.5808 4.41597 12.3883 4.65514 12.3824C3.7393 9.25578 3.7393 5.88411 4.65514 2.75745C4.41597 2.75161 4.2293 2.55911 4.2293 2.31995C4.2293 2.08078 4.42764 1.88245 4.6668 1.88245H5.25014C5.39014 1.88245 5.5243 1.95245 5.60597 2.06328C5.68764 2.17995 5.71097 2.32578 5.6643 2.45995C4.56764 5.75578 4.56764 9.38411 5.6643 12.6858C5.71097 12.8199 5.68764 12.9658 5.60597 13.0824C5.5243 13.1874 5.39014 13.2574 5.25014 13.2574Z" fill="white"/>
<path id="Vector_3" d="M8.74991 13.2575C8.70324 13.2575 8.65657 13.2517 8.60991 13.2342C8.38241 13.1583 8.25407 12.9075 8.33574 12.68C9.43241 9.38418 9.43241 5.75584 8.33574 2.45418C8.25991 2.22668 8.38241 1.97584 8.60991 1.90001C8.84324 1.82418 9.08824 1.94668 9.16407 2.17418C10.3249 5.65084 10.3249 9.47751 9.16407 12.9483C9.10574 13.1408 8.93074 13.2575 8.74991 13.2575Z" fill="white"/>
<path id="Vector_4" d="M7 10.6034C5.3725 10.6034 3.75083 10.3759 2.1875 9.91503C2.18167 10.1484 1.98917 10.3409 1.75 10.3409C1.51083 10.3409 1.3125 10.1425 1.3125 9.90336V9.32003C1.3125 9.18003 1.3825 9.04586 1.49333 8.9642C1.61 8.88253 1.75583 8.8592 1.89 8.90586C5.18583 10.0025 8.82 10.0025 12.1158 8.90586C12.25 8.8592 12.3958 8.88253 12.5125 8.9642C12.6292 9.04586 12.6933 9.18003 12.6933 9.32003V9.90336C12.6933 10.1425 12.495 10.3409 12.2558 10.3409C12.0167 10.3409 11.8242 10.1542 11.8183 9.91503C10.2492 10.3759 8.6275 10.6034 7 10.6034Z" fill="white"/>
<path id="Vector_5" d="M12.2502 6.25745C12.2035 6.25745 12.1569 6.25161 12.1102 6.23411C8.81437 5.13745 5.1802 5.13745 1.88437 6.23411C1.65103 6.30995 1.40603 6.18745 1.3302 5.95995C1.2602 5.72661 1.3827 5.48161 1.6102 5.40578C5.08687 4.24495 8.91353 4.24495 12.3844 5.40578C12.6119 5.48161 12.7402 5.73245 12.6585 5.95995C12.606 6.14078 12.431 6.25745 12.2502 6.25745Z" fill="white"/>
</g>
</g>
</svg>
