<svg width="38" height="39" viewBox="0 0 38 39" fill="none" xmlns="http://www.w3.org/2000/svg">
<path d="M37.3706 19.2127C37.3706 29.358 29.1458 37.5826 19 37.5826C8.85417 37.5826 0.629384 29.358 0.629384 19.2127C0.629384 9.06727 8.85417 0.842763 19 0.842763C29.1458 0.842763 37.3706 9.06727 37.3706 19.2127Z" stroke="white" stroke-opacity="0.5" stroke-width="1.25877"/>
<g clip-path="url(#clip0_7838_2476)">
<path d="M22.5216 11.1792H16.4463C14.1241 11.1792 12.2349 13.2263 12.2349 15.7426V22.3254C12.2349 24.8417 14.1241 26.8888 16.4463 26.8888H22.5215C24.8437 26.8888 26.733 24.8417 26.733 22.3254V15.7426C26.733 13.2263 24.8437 11.1792 22.5216 11.1792ZM25.6003 22.3254C25.6003 24.1649 24.2192 25.6615 22.5216 25.6615H16.4463C14.7487 25.6615 13.3675 24.1649 13.3675 22.3254V15.7426C13.3675 13.9031 14.7487 12.4065 16.4463 12.4065H22.5215C24.2192 12.4065 25.6003 13.9031 25.6003 15.7426V22.3254Z" fill="white" fill-opacity="0.5"/>
<path d="M19.4839 14.7998C17.3291 14.7998 15.5762 16.6993 15.5762 19.034C15.5762 21.3688 17.3291 23.2682 19.4839 23.2682C21.6386 23.2682 23.3916 21.3688 23.3916 19.034C23.3916 16.6993 21.6386 14.7998 19.4839 14.7998ZM19.4839 22.0409C17.9537 22.0409 16.7088 20.692 16.7088 19.034C16.7088 17.376 17.9537 16.0271 19.4839 16.0271C21.014 16.0271 22.2589 17.376 22.2589 19.034C22.2589 20.692 21.014 22.0409 19.4839 22.0409Z" fill="white" fill-opacity="0.5"/>
<path d="M23.4484 15.3518C23.7612 15.3518 24.0147 15.0771 24.0147 14.7382C24.0147 14.3993 23.7612 14.1245 23.4484 14.1245C23.1356 14.1245 22.8821 14.3993 22.8821 14.7382C22.8821 15.0771 23.1356 15.3518 23.4484 15.3518Z" fill="white" fill-opacity="0.5"/>
</g>
<defs>
<clipPath id="clip0_7838_2476">
<rect width="14.4981" height="15.7096" fill="white" transform="translate(12.2349 11.1792)"/>
</clipPath>
</defs>
</svg>
