<svg width="18" height="19" viewBox="0 0 18 19" fill="none" xmlns="http://www.w3.org/2000/svg">
<g id="asicon/outline/sms-tracking">
<g id="vuesax/outline/sms-tracking">
<g id="sms-tracking">
<path id="Vector" d="M12.75 16.0088H5.25C4.9425 16.0088 4.6875 15.7538 4.6875 15.4463C4.6875 15.1388 4.9425 14.8838 5.25 14.8838H12.75C14.895 14.8838 15.9375 13.8413 15.9375 11.6963V6.44629C15.9375 4.30129 14.895 3.25879 12.75 3.25879H5.25C3.105 3.25879 2.0625 4.30129 2.0625 6.44629C2.0625 6.75379 1.8075 7.00879 1.5 7.00879C1.1925 7.00879 0.9375 6.75379 0.9375 6.44629C0.9375 3.70879 2.5125 2.13379 5.25 2.13379H12.75C15.4875 2.13379 17.0625 3.70879 17.0625 6.44629V11.6963C17.0625 14.4338 15.4875 16.0088 12.75 16.0088Z" fill="white"/>
<path id="Vector_2" d="M8.99983 9.72376C8.36983 9.72376 7.73234 9.52877 7.24484 9.13127L4.89733 7.25627C4.65733 7.06127 4.61234 6.70877 4.80734 6.46877C5.00234 6.22877 5.35483 6.18377 5.59483 6.37877L7.94233 8.25377C8.51233 8.71127 9.47983 8.71127 10.0498 8.25377L12.3973 6.37877C12.6373 6.18377 12.9973 6.22127 13.1848 6.46877C13.3798 6.70877 13.3423 7.06877 13.0948 7.25627L10.7473 9.13127C10.2673 9.52877 9.62983 9.72376 8.99983 9.72376Z" fill="white"/>
<path id="Vector_3" d="M6 13.0088H1.5C1.1925 13.0088 0.9375 12.7538 0.9375 12.4463C0.9375 12.1388 1.1925 11.8838 1.5 11.8838H6C6.3075 11.8838 6.5625 12.1388 6.5625 12.4463C6.5625 12.7538 6.3075 13.0088 6 13.0088Z" fill="white"/>
<path id="Vector_4" d="M3.75 10.0088H1.5C1.1925 10.0088 0.9375 9.75379 0.9375 9.44629C0.9375 9.13879 1.1925 8.88379 1.5 8.88379H3.75C4.0575 8.88379 4.3125 9.13879 4.3125 9.44629C4.3125 9.75379 4.0575 10.0088 3.75 10.0088Z" fill="white"/>
</g>
</g>
</g>
</svg>
