<svg width="18" height="19" viewBox="0 0 18 19" fill="none" xmlns="http://www.w3.org/2000/svg">
<g id="asicon/outline/mobile">
<g id="vuesax/outline/mobile">
<g id="mobile">
<path id="Vector" d="M11.25 17.1338H6.75C3.4425 17.1338 2.4375 16.1288 2.4375 12.8213V5.32129C2.4375 2.01379 3.4425 1.00879 6.75 1.00879H11.25C14.5575 1.00879 15.5625 2.01379 15.5625 5.32129V12.8213C15.5625 16.1288 14.5575 17.1338 11.25 17.1338ZM6.75 2.13379C4.065 2.13379 3.5625 2.64379 3.5625 5.32129V12.8213C3.5625 15.4988 4.065 16.0088 6.75 16.0088H11.25C13.935 16.0088 14.4375 15.4988 14.4375 12.8213V5.32129C14.4375 2.64379 13.935 2.13379 11.25 2.13379H6.75Z" fill="white"/>
<path id="Vector_2" d="M10.5 4.75879H7.5C7.1925 4.75879 6.9375 4.50379 6.9375 4.19629C6.9375 3.88879 7.1925 3.63379 7.5 3.63379H10.5C10.8075 3.63379 11.0625 3.88879 11.0625 4.19629C11.0625 4.50379 10.8075 4.75879 10.5 4.75879Z" fill="white"/>
<path id="Vector_3" d="M8.9999 14.9664C8.0474 14.9664 7.2749 14.1939 7.2749 13.2414C7.2749 12.2889 8.0474 11.5164 8.9999 11.5164C9.9524 11.5164 10.7249 12.2889 10.7249 13.2414C10.7249 14.1939 9.9524 14.9664 8.9999 14.9664ZM8.9999 12.6339C8.6699 12.6339 8.3999 12.9039 8.3999 13.2339C8.3999 13.5639 8.6699 13.8339 8.9999 13.8339C9.3299 13.8339 9.5999 13.5639 9.5999 13.2339C9.5999 12.9039 9.3299 12.6339 8.9999 12.6339Z" fill="white"/>
</g>
</g>
</g>
</svg>
