<svg width="22" height="16" viewBox="0 0 22 16" fill="none" xmlns="http://www.w3.org/2000/svg">
<g clip-path="url(#clip0_4407_45664)">
<mask id="mask0_4407_45664" style="mask-type:alpha" maskUnits="userSpaceOnUse" x="0" y="0" width="22" height="16">
<path d="M19.1826 0.5H2.18262C1.07805 0.5 0.182617 1.39543 0.182617 2.5V13.5C0.182617 14.6046 1.07805 15.5 2.18262 15.5H19.1826C20.2872 15.5 21.1826 14.6046 21.1826 13.5V2.5C21.1826 1.39543 20.2872 0.5 19.1826 0.5Z" fill="white"/>
</mask>
<g mask="url(#mask0_4407_45664)">
<path d="M19.1826 0.5H2.18262C1.07805 0.5 0.182617 1.39543 0.182617 2.5V13.5C0.182617 14.6046 1.07805 15.5 2.18262 15.5H19.1826C20.2872 15.5 21.1826 14.6046 21.1826 13.5V2.5C21.1826 1.39543 20.2872 0.5 19.1826 0.5Z" fill="#00773C"/>
<path fill-rule="evenodd" clip-rule="evenodd" d="M16.1825 10.5V9.50001H5.18248L7.18248 10.5H13.1825C13.1825 11.052 13.8545 11.5 14.6825 11.5C15.5105 11.5 16.1825 11.052 16.1825 10.5ZM8.91248 4.40601C8.90048 4.40601 8.88248 4.41201 8.85948 4.42601C8.80548 4.46201 8.69948 4.57301 8.69548 4.70101C8.69248 4.77401 8.67848 4.77401 8.72548 4.82101C8.75948 4.86901 8.79548 4.86501 8.86348 4.82801C8.90348 4.79801 8.91648 4.78101 8.93048 4.73201C8.94648 4.65201 8.84348 4.77201 8.83048 4.68001C8.80748 4.59601 8.87348 4.56001 8.93548 4.48001C8.93748 4.44001 8.93748 4.41001 8.91248 4.40801V4.40601ZM9.91548 4.41101C9.89548 4.41501 9.87248 4.44101 9.83948 4.49901C9.81648 4.56101 9.71548 4.65501 9.78948 4.84901C9.84748 4.97201 9.87248 5.17101 9.84548 5.39401C9.80348 5.45701 9.79548 5.47901 9.74048 5.54201C9.66448 5.62501 9.58048 5.60401 9.51848 5.57201C9.45848 5.53201 9.41248 5.51201 9.38548 5.38601C9.39048 5.18601 9.40248 4.85401 9.36548 4.78401C9.31148 4.67601 9.22148 4.71401 9.18348 4.74701C9.00048 4.91701 8.90948 5.20001 8.85348 5.42701C8.80348 5.59101 8.74848 5.54301 8.71048 5.47701C8.61748 5.38901 8.61048 4.70701 8.49848 4.82001C8.31848 5.33401 8.60148 5.89701 8.79848 5.84201C8.93848 5.90201 9.02848 5.63201 9.08648 5.33701C9.12648 5.25401 9.15648 5.24401 9.17648 5.28701C9.17148 5.67901 9.20648 5.76701 9.30648 5.88501C9.53048 6.05901 9.71648 5.90701 9.73148 5.89301L9.90648 5.71901C9.94648 5.67901 9.99648 5.67501 10.0515 5.71101C10.1055 5.76101 10.0985 5.84401 10.2115 5.90101C10.3095 5.94101 10.5145 5.91101 10.5615 5.82801C10.6265 5.71801 10.6415 5.68001 10.6715 5.63801C10.7175 5.57801 10.7965 5.60501 10.7965 5.62401C10.7895 5.65901 10.7435 5.69401 10.7745 5.75401C10.8295 5.79401 10.8425 5.76801 10.8745 5.75901C10.9885 5.70501 11.0745 5.45701 11.0745 5.45701C11.0795 5.36501 11.0275 5.37201 10.9945 5.39101C10.9495 5.41801 10.9475 5.42701 10.9045 5.45401C10.8475 5.46201 10.7395 5.49901 10.6865 5.41601C10.6315 5.31601 10.6315 5.17801 10.5895 5.07601C10.5895 5.07001 10.5165 4.91901 10.5835 4.91001C10.6165 4.91601 10.6905 4.93501 10.7015 4.87401C10.7375 4.81401 10.6245 4.64401 10.5475 4.56001C10.4815 4.48701 10.3895 4.47801 10.3005 4.55201C10.2375 4.61001 10.2475 4.67401 10.2345 4.73501C10.2195 4.80501 10.2225 4.89201 10.2945 4.98501C10.3565 5.10701 10.4695 5.26501 10.4315 5.48701C10.4315 5.48701 10.3665 5.59301 10.2515 5.57901C10.2015 5.56901 10.1235 5.54901 10.0815 5.23901C10.0515 5.00601 10.0895 4.67901 9.99148 4.52601C9.96848 4.46901 9.94948 4.41301 9.91748 4.41601L9.91548 4.41101ZM9.59748 4.43701C9.56748 4.44001 9.53448 4.47501 9.50748 4.54201C9.48448 4.59401 9.45548 4.86201 9.46048 4.86201C9.44048 4.94201 9.54348 4.97601 9.59048 4.87401C9.66048 4.68401 9.66048 4.60401 9.66448 4.52601C9.65448 4.46601 9.62748 4.43601 9.59748 4.43801V4.43701ZM10.7705 4.45701C10.7405 4.46101 10.7155 4.47901 10.7065 4.52501C10.6935 4.63101 10.7005 4.69001 10.7185 4.77901C10.7315 4.83901 10.8185 4.93701 10.8605 4.99501C11.0635 5.26801 11.2605 5.54201 11.4485 5.82501C11.4785 6.03701 11.4985 6.24301 11.5135 6.44901C11.5455 6.89901 11.5535 7.45901 11.5265 7.93401C11.6105 7.93701 11.7465 7.79701 11.7935 7.59401C11.8235 7.31001 11.7835 6.73401 11.7795 6.56601L11.7695 6.32801C11.9895 6.68801 12.2015 7.06801 12.4095 7.48401C12.4865 7.44801 12.4695 7.01901 12.4255 6.95901C12.2575 6.59901 12.0255 6.24301 11.9525 6.10601C11.9255 6.05601 11.8345 5.91901 11.7275 5.76001C11.7075 5.53201 11.6855 5.34001 11.6715 5.28201C11.6365 5.04201 11.7695 5.30901 11.7515 5.17001C11.7075 4.93001 11.5755 4.76801 11.4195 4.54801C11.3695 4.47801 11.3695 4.46201 11.2925 4.56601C11.2475 4.67101 11.2475 4.75901 11.2625 4.84101C11.2405 4.81101 11.2155 4.77701 11.1795 4.73301L10.9245 4.51701C10.8895 4.49201 10.8215 4.45401 10.7705 4.45701ZM14.2465 4.49401C14.2315 4.49201 14.2165 4.49901 14.1965 4.52601C14.1615 4.55601 14.1245 4.61301 14.1265 4.68601C14.1335 4.81101 14.1565 4.94001 14.1645 5.06601L14.1745 5.11601C14.1605 5.10001 14.1485 5.08601 14.1415 5.08001C13.8945 4.82001 14.2545 5.03601 14.0935 4.83701C13.9585 4.68701 13.9185 4.64101 13.8035 4.55101C13.7435 4.51501 13.7095 4.44301 13.6905 4.56501C13.6825 4.67201 13.6745 4.79701 13.6805 4.88701C13.6805 4.93701 13.7335 5.03201 13.7785 5.08701C13.9425 5.29001 14.1105 5.50501 14.2785 5.72901C14.3145 6.18601 14.3235 6.60501 14.3585 7.06301C14.3545 7.25901 14.2945 7.51901 14.2385 7.54301C14.2385 7.54301 14.1505 7.59301 14.0925 7.53801C14.0495 7.52101 13.8805 7.25501 13.8805 7.25501C13.7935 7.17501 13.7355 7.19801 13.6745 7.25501C13.5045 7.41901 13.4265 7.72701 13.3115 7.93901C13.2815 7.98601 13.1985 8.02701 13.1055 7.93501C12.8685 7.61101 13.0055 7.15001 12.9775 7.26901C12.7675 7.50701 12.8595 7.90101 12.9075 7.98601C12.9775 8.12601 13.0335 8.21601 13.1675 8.28301C13.2925 8.37301 13.3875 8.31801 13.4415 8.25301C13.5655 8.12501 13.5675 7.79601 13.6255 7.73101C13.6655 7.61101 13.7685 7.63101 13.8185 7.68501C13.8685 7.75501 13.9245 7.80001 13.9955 7.83801C14.1115 7.94001 14.2495 7.95801 14.3855 7.86501C14.4785 7.81301 14.5395 7.74501 14.5935 7.61101C14.6535 7.45501 14.6235 6.63501 14.6105 6.17901L14.8705 6.55501C14.9065 6.95501 14.9235 7.35001 14.9105 7.72801C14.9025 7.80301 15.1735 7.50401 15.1705 7.36201C15.1705 7.23901 15.1725 7.12601 15.1705 7.02201C15.3035 7.23201 15.4305 7.44501 15.5505 7.66201C15.6255 7.62201 15.6005 7.19901 15.5535 7.14201C15.4275 6.93001 15.2655 6.70201 15.1405 6.52401C15.1155 6.30101 15.0825 6.03801 15.0665 5.95701C15.0435 5.83101 15.0195 5.64201 14.9835 5.49301C14.9735 5.43601 14.9435 5.25001 14.9535 5.23301C14.9675 5.19001 15.0235 5.23301 15.0505 5.18501C15.0905 5.14001 14.9085 4.66501 14.8155 4.53101C14.7825 4.47101 14.7215 4.49101 14.6475 4.59101C14.5775 4.65501 14.6035 4.80301 14.6295 4.94401C14.6975 5.30401 14.7595 5.66801 14.8075 6.03401C14.7175 5.89901 14.6075 5.73701 14.4995 5.58201L14.4855 5.51201C14.4855 5.50401 14.4715 5.21701 14.4585 5.14901C14.4555 5.12101 14.4485 5.11301 14.4785 5.11701C14.5085 5.14301 14.5125 5.14401 14.5315 5.15301C14.5635 5.15701 14.5915 5.10501 14.5715 5.05601L14.2815 4.52201C14.2715 4.50901 14.2575 4.49701 14.2415 4.49501L14.2465 4.49401ZM5.27648 4.50401C5.22148 4.50201 5.16348 4.53401 5.18648 4.59901C5.17248 4.63401 5.29048 4.75201 5.31148 4.81701C5.32848 4.86401 5.29148 5.01201 5.33148 5.02701C5.36648 5.04201 5.41548 4.92301 5.43348 4.81401C5.44348 4.75401 5.43648 4.54801 5.29648 4.50601C5.28948 4.50401 5.28248 4.50401 5.27448 4.50301L5.27648 4.50401ZM15.4965 4.50401C15.4835 4.50601 15.4685 4.52401 15.4465 4.57401C15.3915 4.66401 15.3725 4.82401 15.3945 4.96401C15.5245 5.85401 15.6245 6.71601 15.6445 7.50401C15.6325 7.58001 15.6285 7.62001 15.5945 7.71401C15.5165 7.81401 15.4305 7.93801 15.3495 7.99801C15.2695 8.05801 15.0975 8.11601 15.0415 8.16001C14.8615 8.26201 14.8615 8.38001 15.0055 8.38501C15.2535 8.35501 15.5475 8.33501 15.7495 8.03001C15.8035 7.94501 15.8675 7.71301 15.8695 7.57001C15.8895 6.74001 15.8595 5.92501 15.7345 5.32401C15.7265 5.26401 15.7005 5.13101 15.7105 5.11401C15.7255 5.07201 15.8065 5.11701 15.8355 5.07001C15.8785 5.02601 15.6255 4.70301 15.5375 4.56501C15.5195 4.53101 15.5075 4.50201 15.4935 4.50501L15.4965 4.50401ZM12.8935 4.51801C12.8835 4.52001 12.8695 4.53601 12.8415 4.57301C12.7715 4.79901 12.7475 4.98301 12.7745 5.12501C12.9545 6.05501 13.1345 6.90001 13.1065 7.78501C13.1905 7.78501 13.2885 7.59201 13.3305 7.40001C13.3535 7.13501 13.3145 6.97401 13.3085 6.82001C13.3015 6.66401 13.1325 5.40401 13.0985 5.28701C13.0565 5.06501 13.2625 5.25701 13.2405 5.12901C13.1685 4.96501 12.9905 4.72901 12.9365 4.58601C12.9165 4.54801 12.9125 4.51301 12.8965 4.51601L12.8935 4.51801ZM6.55948 4.53601C6.53948 4.54001 6.51648 4.55801 6.50948 4.58601C6.50448 4.60601 6.51748 4.63901 6.49948 4.64901C6.48948 4.65901 6.45148 4.65201 6.45348 4.59901C6.45348 4.58101 6.44048 4.56301 6.43348 4.55201C6.42548 4.54801 6.42048 4.54701 6.40648 4.54701C6.38948 4.54701 6.38948 4.55201 6.38048 4.56701C6.37648 4.58101 6.37048 4.59501 6.37048 4.61101C6.36848 4.63101 6.36048 4.63601 6.34748 4.63901C6.33148 4.63901 6.33448 4.64101 6.32248 4.63201C6.31248 4.62501 6.30448 4.62201 6.30448 4.60801C6.30448 4.59301 6.30048 4.56801 6.29648 4.56001C6.28948 4.55001 6.27848 4.54601 6.26648 4.54301C6.20048 4.54301 6.19648 4.62101 6.19948 4.64901C6.19448 4.65501 6.19248 4.78901 6.28248 4.82701C6.40248 4.88501 6.63048 4.86001 6.62248 4.66501C6.62248 4.64801 6.61748 4.59001 6.61548 4.57501C6.60348 4.54501 6.58048 4.53501 6.55848 4.53801L6.55948 4.53601ZM8.18548 4.53801C8.14348 4.54001 8.10548 4.55201 8.07548 4.56801C7.99548 4.64501 7.97548 4.76801 8.03948 4.84501C8.09948 4.87501 8.16248 4.93501 8.12148 4.97001C7.94748 5.15501 7.49448 5.46601 7.47148 5.52301V5.52901H7.47548V5.53101C7.49848 5.54601 7.78248 5.54601 7.81348 5.53101H7.81548C7.91348 5.49401 8.37548 4.96601 8.37548 4.96601C8.35148 4.94601 8.32948 4.93001 8.30548 4.90901C8.27948 4.88701 8.28248 4.86501 8.30548 4.84301C8.41948 4.77701 8.38348 4.63001 8.32348 4.56301C8.27348 4.54101 8.22748 4.53301 8.18548 4.53601V4.53801ZM12.4355 4.53801C12.4235 4.54101 12.4085 4.55801 12.3855 4.60801C12.3305 4.69801 12.2935 4.85301 12.2985 4.99801C12.4165 5.81801 12.4525 6.53501 12.5305 7.35501C12.5365 7.43501 12.5245 7.54901 12.4725 7.59501C12.2765 7.79901 11.9955 8.04901 11.6895 8.16501C11.6565 8.20201 11.7715 8.35901 11.9195 8.35901C12.1675 8.32901 12.3855 8.19101 12.5895 7.82401C12.6425 7.73901 12.7375 7.55601 12.7395 7.41401C12.7595 6.58201 12.6995 5.93401 12.5735 5.33401C12.5665 5.27401 12.5715 5.20401 12.5815 5.18801C12.5975 5.16801 12.6515 5.18801 12.6815 5.14101C12.7235 5.09701 12.5675 4.73801 12.4795 4.60101C12.4615 4.56601 12.4515 4.53801 12.4355 4.53901V4.53801ZM5.85148 4.56501C5.81748 4.56901 5.78548 4.59501 5.76948 4.63501C5.76448 4.76501 5.76348 4.89501 5.77948 5.01701C5.83948 5.23001 5.85648 5.41701 5.88548 5.63401C5.89548 5.92601 5.71748 5.76001 5.72548 5.61601C5.76548 5.42801 5.75548 5.13301 5.71948 5.05801C5.68948 4.98301 5.65748 4.96501 5.58748 4.97801C5.53248 4.97401 5.38948 5.12801 5.34948 5.38801C5.34948 5.38801 5.31548 5.52001 5.30148 5.63801C5.28148 5.77101 5.19348 5.86601 5.13148 5.62001C5.07848 5.44001 5.04648 5.00001 4.95748 5.10201C4.93148 5.44601 4.90148 6.05201 5.19348 6.11401C5.54748 6.14801 5.35148 5.51601 5.47948 5.40101C5.50448 5.34601 5.54948 5.34501 5.55248 5.41601V5.95301C5.54848 6.12701 5.66248 6.17901 5.75248 6.21501C5.84548 6.20801 5.90648 6.21101 5.94248 6.30101L5.98748 7.23101C5.98748 7.23101 6.20148 7.29101 6.21148 6.70801C6.22148 6.36501 6.14148 6.07801 6.18848 6.01101C6.19048 5.94501 6.27448 5.94101 6.33248 5.97401C6.42548 6.03901 6.46648 6.11901 6.61048 6.08701C6.83048 6.02701 6.96048 5.92101 6.96348 5.75301C6.95348 5.59301 6.93348 5.43301 6.86348 5.27301C6.87348 5.24501 6.82348 5.17001 6.83348 5.14101C6.87148 5.20101 6.93148 5.19701 6.94348 5.14101C6.90748 5.01801 6.84948 4.90101 6.75548 4.85101C6.67848 4.78101 6.56548 4.79601 6.52348 4.93801C6.50348 5.10201 6.58348 5.29601 6.70348 5.45501C6.72748 5.51701 6.76348 5.62001 6.74748 5.71301C6.68448 5.74901 6.62148 5.73301 6.56748 5.67801C6.56748 5.67801 6.39448 5.54801 6.39448 5.51801C6.44148 5.22301 6.40448 5.18801 6.37948 5.10801C6.36148 4.99401 6.30748 4.95801 6.26448 4.88001C6.22048 4.83301 6.16148 4.83301 6.13448 4.88001C6.05648 5.01301 6.09248 5.30001 6.14848 5.42701C6.18848 5.54501 6.25048 5.61901 6.22148 5.61901C6.19748 5.68401 6.14748 5.66901 6.11148 5.59201C6.06148 5.43201 6.04948 5.19601 6.04948 5.08901C6.03448 4.95701 6.01748 4.67401 5.92948 4.60201C5.90648 4.57001 5.87948 4.55901 5.85248 4.56201L5.85148 4.56501ZM7.09348 4.56501C7.07648 4.56901 7.05648 4.57901 7.03348 4.58501C6.95848 4.60801 6.88848 4.67301 6.91048 4.79901C7.00048 5.33901 7.05748 5.75201 7.14648 6.29201C7.15948 6.35601 7.10648 6.43901 7.03848 6.43201C6.92248 6.35201 6.89348 6.19201 6.69548 6.20001C6.55148 6.20001 6.38748 6.35801 6.36748 6.50801C6.34348 6.62801 6.33548 6.75801 6.36748 6.86201C6.46748 6.98201 6.58948 6.97001 6.69548 6.94201C6.78248 6.90701 6.85548 6.82201 6.88548 6.84201C6.90548 6.87501 6.88348 7.15601 6.47548 7.37201C6.22348 7.48601 6.02348 7.51201 5.91548 7.30801C5.84948 7.18001 5.92148 6.69201 5.75748 6.80401C5.27148 8.05601 6.89448 8.23001 7.07548 6.85601C7.08748 6.81601 7.12248 6.77801 7.14848 6.78801C7.15848 6.79301 7.16848 6.80801 7.17248 6.83601C7.13448 8.08001 5.91648 8.16601 5.71048 7.77401C5.65848 7.68201 5.64348 7.47601 5.63848 7.35401C5.62848 7.27901 5.61048 7.23601 5.58848 7.21901C5.53848 7.18201 5.47248 7.27901 5.45848 7.44601C5.43848 7.58101 5.44348 7.61801 5.44348 7.74801C5.50948 8.73101 7.07648 8.30801 7.33148 7.49801C7.45748 7.07801 7.32848 6.76101 7.37148 6.72201L7.37448 6.72001H7.37748L7.38248 6.71801C7.53848 6.88601 7.75648 6.73801 7.80448 6.68101C7.82448 6.65101 7.87648 6.63101 7.91248 6.67101C8.03248 6.75701 8.24648 6.71601 8.29048 6.56101C8.31648 6.41101 8.33848 6.25701 8.34348 6.09601C8.26348 6.12101 8.19948 6.13901 8.17348 6.16601C8.16748 6.17301 8.16348 6.18101 8.16148 6.18901L8.14148 6.32201C8.14148 6.32701 8.13948 6.33001 8.13748 6.33201C8.13448 6.33901 8.12748 6.34401 8.12348 6.34701C8.09548 6.36201 8.04648 6.35401 8.04348 6.31301C8.00648 6.14301 7.85148 6.12101 7.75748 6.38601C7.69448 6.43601 7.57748 6.44601 7.56748 6.37001C7.58248 6.19201 7.51048 6.16801 7.36748 6.25201L7.22948 5.21201C7.28948 5.20901 7.34348 5.25201 7.39948 5.18401C7.33948 5.00001 7.21448 4.62601 7.14348 4.59001H7.14148L7.13148 4.58001C7.13148 4.57801 7.12848 4.57701 7.12648 4.57601L7.12248 4.57001C7.11848 4.57001 7.11448 4.56801 7.11248 4.56701C7.10548 4.56501 7.09948 4.56501 7.09248 4.56501H7.09348ZM11.9355 4.56901C11.8735 4.56701 11.8055 4.60601 11.8315 4.68401C11.8155 4.72701 11.9645 4.87101 11.9885 4.94901C12.0315 5.06901 11.9555 5.18601 12.0005 5.20301C12.0425 5.22101 12.1005 5.07801 12.1205 4.94501C12.1465 4.83701 12.0705 4.61701 11.9605 4.57201L11.9355 4.57001V4.56901ZM8.16248 4.70001C8.19048 4.69801 8.22448 4.72401 8.24248 4.76001C8.25948 4.80001 8.25048 4.83701 8.22248 4.84401C8.19248 4.85101 8.15448 4.82601 8.13648 4.78601C8.11848 4.74601 8.12648 4.70901 8.15648 4.70201H8.16248V4.70001ZM15.1595 4.88201C15.1025 4.88001 15.0395 4.92201 15.0655 5.00701C15.0515 5.05301 15.1855 5.20901 15.2085 5.29501C15.2285 5.35501 15.1785 5.55101 15.2185 5.56901C15.2565 5.58901 15.3085 5.43301 15.3285 5.28901C15.3405 5.20901 15.2825 4.93401 15.1835 4.88501C15.1765 4.88301 15.1685 4.88101 15.1605 4.88101L15.1595 4.88201ZM11.2895 4.97801C11.2965 5.00101 11.3015 5.02401 11.3045 5.04801C11.3165 5.09801 11.3265 5.14801 11.3365 5.20001C11.2925 5.13801 11.2565 5.08801 11.2395 5.07001C11.1395 4.95001 11.2415 4.99201 11.2895 4.97801ZM12.1825 5.41601C12.1605 5.42001 12.1395 5.43901 12.1325 5.46901C12.1265 5.48701 12.1405 5.51901 12.1225 5.52901C12.1125 5.53901 12.0725 5.53301 12.0755 5.47901C12.0755 5.46101 12.0625 5.44201 12.0555 5.43201C12.0475 5.42701 12.0425 5.42501 12.0285 5.42501C12.0115 5.42501 12.0115 5.43001 12.0025 5.44501C11.9985 5.45901 11.9925 5.47301 11.9925 5.49001C11.9925 5.51001 11.9845 5.51601 11.9705 5.52001C11.9545 5.52001 11.9575 5.52001 11.9445 5.51301C11.9365 5.50301 11.9275 5.50101 11.9275 5.48701C11.9275 5.47201 11.9245 5.44901 11.9195 5.43901C11.9125 5.42901 11.9025 5.42601 11.8895 5.42201C11.8245 5.42201 11.8195 5.49801 11.8235 5.52601C11.8195 5.53201 11.8165 5.66801 11.9065 5.70601C12.0285 5.76301 12.2565 5.73601 12.2465 5.54201C12.2465 5.52501 12.2415 5.46701 12.2405 5.45201C12.2275 5.42201 12.2045 5.41201 12.1835 5.41501L12.1825 5.41601ZM8.11248 5.45601C8.09848 5.45601 8.07848 5.46001 8.05548 5.47401C7.94848 5.53201 7.90748 5.70401 7.97548 5.80401C8.03548 5.89401 8.13548 5.86101 8.14848 5.86101C8.25348 5.87501 8.31548 5.66501 8.31548 5.66501C8.31548 5.66501 8.31848 5.60501 8.19548 5.71701C8.14148 5.72701 8.13548 5.70701 8.12148 5.67701C8.10948 5.62401 8.11148 5.56701 8.13648 5.51401C8.14848 5.48101 8.13648 5.46001 8.11248 5.45801V5.45601ZM13.8655 5.48301C13.8055 5.48001 13.7425 5.51901 13.7255 5.60001C13.7255 5.64801 13.7475 5.67401 13.7435 5.71801C13.7385 5.74301 13.7135 5.75801 13.6515 5.73001C13.6615 5.72001 13.6115 5.65201 13.6115 5.65201C13.5645 5.62201 13.5015 5.65201 13.4595 5.68001C13.4365 5.72201 13.4195 5.79301 13.4455 5.86501C13.5135 5.99201 13.7485 6.20801 13.8605 6.21001C13.8625 6.09601 13.8735 5.94401 13.8805 5.85001C13.8825 5.81401 13.8905 5.77501 13.9255 5.76601C13.9595 5.75601 14.0185 5.80001 14.0185 5.76301C14.0125 5.69101 13.9985 5.58301 13.9585 5.53301C13.9365 5.50301 13.9015 5.48501 13.8665 5.48301H13.8655ZM9.10248 5.88001L9.09948 5.88301C9.09948 5.88301 9.09748 5.88301 9.09648 5.88501C9.08448 5.89501 9.07048 5.91501 9.03948 5.93501C8.98648 5.99501 8.97748 6.03801 8.97948 6.15801C8.98348 6.17101 9.07948 6.44101 9.16248 6.63001C9.21848 6.82701 9.26948 7.05301 9.23248 7.26601C9.10248 7.54801 8.84248 7.80101 8.58948 7.93901C8.45948 7.97901 8.34948 7.96501 8.31948 7.93701C8.24548 7.88701 8.24448 7.79701 8.24948 7.78301V7.78001C8.46148 7.63201 8.70448 7.51201 8.89448 7.11301C8.95048 6.96001 8.96848 6.86801 8.91248 6.63301C8.89048 6.54301 8.86248 6.47301 8.80248 6.40901H8.80448C8.84048 6.39201 8.93448 6.46101 8.94948 6.41901C8.92648 6.30501 8.84948 6.15401 8.76448 6.07601C8.68848 6.00601 8.60448 5.99901 8.53648 6.06201C8.45848 6.10601 8.44248 6.26201 8.47948 6.39801C8.52148 6.50001 8.63448 6.51801 8.71448 6.72501C8.71648 6.73901 8.74148 6.88001 8.70148 6.93801C8.66748 7.04001 8.24648 7.37201 8.21648 7.39201L8.21348 7.39401L8.21148 7.39601H8.20948H8.20748V7.39301C8.20548 7.38501 8.20748 7.36301 8.20748 7.33001C8.20448 7.26801 8.23048 7.12701 8.22748 7.10201V7.10001C8.08748 7.19001 8.04048 7.46501 8.01548 7.54701C7.66248 7.79001 7.26248 7.97101 7.03148 8.21701C6.91148 8.40701 7.85948 8.00301 7.96948 7.95401L7.97248 7.95701C7.99448 7.98001 7.99548 8.06001 8.05848 8.13301C8.15848 8.26601 8.36648 8.34801 8.57048 8.29701C8.91248 8.17401 9.11048 7.94101 9.31048 7.68201C9.33848 7.64201 9.38348 7.60801 9.42548 7.64001C9.56248 7.94801 9.96048 8.16801 10.4735 8.19001C10.5935 8.04601 10.5365 7.97501 10.4885 7.94501C10.4735 7.93501 10.2335 7.84101 10.1955 7.74801C10.1725 7.66201 10.2295 7.58501 10.3435 7.52801C10.6735 7.48801 10.9975 7.44301 11.3115 7.34201C11.3145 7.23601 11.3765 7.07901 11.4185 7.01001C11.4485 6.96301 11.4655 6.95801 11.4725 6.95201V6.95001H11.4745V6.94701V6.93701L11.4205 6.90501L10.3675 6.90101C10.3545 6.89601 10.3455 6.89101 10.3395 6.88601L10.3375 6.88301C10.3375 6.88301 10.3355 6.88301 10.3355 6.88101C10.3355 6.87901 10.3335 6.87901 10.3335 6.87901V6.88001V6.87801V6.87601V6.87401L10.3355 6.87101C10.3405 6.86501 10.3535 6.85801 10.3685 6.85101C10.6205 6.81801 11.0665 6.74501 11.0965 6.31601C11.0915 6.09201 11.0005 5.94601 10.7265 5.90601C10.5245 5.92101 10.3805 6.11601 10.4035 6.33001C10.3935 6.38701 10.4235 6.50001 10.3635 6.51301C9.97748 6.54901 9.55548 6.79101 9.54148 6.96501H9.53948H9.53748H9.53548C9.53548 6.96701 9.53348 6.96701 9.53248 6.96701H9.52848H9.52648H9.52248C9.49748 6.95901 9.46548 6.91701 9.47048 6.86001C9.45548 6.56001 9.35748 6.22001 9.20548 5.96001C9.15048 5.90501 9.12548 5.88301 9.11148 5.88001H9.10848H9.10548H9.10348H9.10248ZM10.1105 6.03801C10.0905 6.04201 10.0675 6.06001 10.0605 6.09001C10.0555 6.11001 10.0705 6.14201 10.0525 6.15201C10.0425 6.16201 10.0025 6.15601 10.0045 6.10201C10.0045 6.08501 9.99148 6.06601 9.98448 6.05501C9.97648 6.05001 9.97148 6.04901 9.95848 6.04901C9.94148 6.04901 9.94048 6.05301 9.93148 6.06701C9.92648 6.08101 9.92148 6.09701 9.92148 6.11201C9.91948 6.13201 9.91148 6.13801 9.89848 6.14001C9.88248 6.14001 9.88648 6.14301 9.87348 6.13501C9.86548 6.12701 9.85548 6.12301 9.85548 6.10901C9.85548 6.09401 9.85248 6.06901 9.84848 6.05901C9.84148 6.05201 9.83048 6.04901 9.81848 6.04501C9.75148 6.04501 9.74848 6.12001 9.75148 6.14901C9.74648 6.15401 9.74348 6.28901 9.83348 6.32701C9.95348 6.38501 10.2435 6.35101 10.1735 6.16401C10.1735 6.14701 10.1685 6.08901 10.1675 6.07401C10.1545 6.04401 10.1315 6.03401 10.1095 6.03701L10.1105 6.03801ZM14.1755 6.20501H14.1655C14.1655 6.20501 13.6035 6.60501 13.5905 6.61901C13.5345 6.66901 13.5625 6.84201 13.5905 6.82201C13.6305 6.83701 14.1955 6.45401 14.1845 6.40901C14.2095 6.41101 14.2215 6.21201 14.1745 6.20401L14.1755 6.20501ZM10.6415 6.26501C10.6635 6.26201 10.6935 6.27001 10.7215 6.28501C10.7645 6.31101 10.7915 6.34701 10.7865 6.37501V6.37901C10.7845 6.37901 10.7845 6.37901 10.7845 6.38101V6.38301C10.7845 6.38301 10.7825 6.38301 10.7825 6.38501C10.7825 6.38701 10.7795 6.38901 10.7775 6.39101C10.7575 6.41101 10.7115 6.40701 10.6675 6.38101C10.6255 6.35801 10.6005 6.32101 10.6025 6.29501V6.29201L10.6075 6.28201C10.6075 6.28201 10.6075 6.28001 10.6095 6.27901L10.6145 6.27301C10.6215 6.26801 10.6305 6.26301 10.6415 6.26301V6.26501ZM5.72348 6.36501C5.43348 6.37101 5.00648 6.74701 4.99548 6.95501L5.91548 6.51501C5.86548 6.43901 5.91248 6.37101 5.72348 6.36501ZM6.66648 6.49501C6.69448 6.49701 6.72448 6.51101 6.74048 6.55101C6.75448 6.58801 6.74048 6.62601 6.72348 6.64501V6.64801C6.70948 6.66401 6.66748 6.65801 6.63648 6.65801C6.59948 6.65601 6.58148 6.65001 6.55948 6.62001C6.54748 6.58501 6.57948 6.55201 6.59448 6.52801L6.60148 6.51801C6.61148 6.50801 6.63148 6.50001 6.65148 6.49801L6.66448 6.49601L6.66648 6.49501ZM14.0665 6.61201C14.0135 6.61801 13.9645 6.66701 13.9865 6.74501C13.9725 6.79101 14.0565 6.95201 14.0795 7.03701C14.0995 7.09701 14.0535 7.27001 14.0945 7.28701C14.1325 7.30701 14.2315 7.18701 14.2285 7.03301C14.2385 6.95301 14.2005 6.66301 14.1015 6.61501C14.0895 6.61201 14.0775 6.61101 14.0655 6.61201H14.0665ZM7.78248 6.89601C7.73648 6.89901 7.69548 6.92301 7.71448 6.98801C7.71148 7.03401 7.84448 7.09101 7.85148 7.19801C7.86948 7.24401 7.82148 7.38801 7.86148 7.40001C7.89748 7.41501 7.94748 7.30001 7.96648 7.19601C7.97648 7.13801 7.92048 6.93601 7.82648 6.89901C7.81148 6.89501 7.79648 6.89401 7.78148 6.89501L7.78248 6.89601ZM9.66248 7.15201H9.67448C9.79248 7.18401 9.96448 7.18801 10.1145 7.20201C10.2375 7.21201 10.2975 7.30601 10.1845 7.34701C10.0705 7.38501 9.96148 7.41701 9.96148 7.57901C9.97548 7.65901 9.97148 7.70101 9.95948 7.71901C9.95948 7.72201 9.95648 7.72401 9.95548 7.72501C9.95548 7.72501 9.95548 7.72701 9.95348 7.72701V7.72901H9.95048L9.94348 7.73201H9.93848C9.91148 7.73701 9.87248 7.71201 9.84348 7.69601C9.77348 7.64601 9.57848 7.52601 9.55048 7.26601C9.54648 7.20601 9.59048 7.15601 9.66048 7.15101L9.66248 7.15201ZM5.06848 7.35201C5.06148 7.35201 5.04848 7.37401 5.02848 7.39901C4.85448 7.67401 4.83848 8.08501 4.93448 8.20901C4.98448 8.26601 5.06848 8.29201 5.13048 8.27401C5.24048 8.22701 5.28748 8.00601 5.26048 7.92601C5.22548 7.86901 5.19648 7.86001 5.16048 7.90801C5.08348 8.06301 5.05048 7.95601 5.04548 7.86801C5.03348 7.70501 5.04948 7.55301 5.06748 7.43301C5.07748 7.37301 5.07748 7.35001 5.06748 7.35001L5.06848 7.35201ZM10.9655 7.71401C10.9525 7.71401 10.9395 7.71601 10.9255 7.72401C10.9225 7.72401 10.8015 7.80401 10.7625 7.86201C10.7385 7.88001 10.7425 7.89501 10.7485 7.92701C10.7665 7.97001 10.7985 7.95701 10.8365 7.93701C10.8865 7.92901 10.9095 7.96201 10.9065 8.02101C10.8835 8.09601 10.9165 8.12301 10.9165 8.12801C10.9165 8.13201 10.9635 8.17301 11.0195 8.14101C11.1365 8.09601 11.2095 8.05101 11.3745 8.01601C11.4175 8.01601 11.4145 7.90001 11.3465 7.89601C11.2565 7.90001 11.1765 7.90601 11.0865 7.97601C11.0315 7.98801 11.0225 7.95401 11.0095 7.92401C10.9955 7.85001 11.0415 7.79801 11.0315 7.74201C11.0335 7.74501 11.0035 7.71801 10.9645 7.71601L10.9655 7.71401ZM14.7415 7.85401L14.6615 7.86201C14.6255 7.86901 14.6135 7.88501 14.6065 7.92901C14.6095 7.99401 14.6495 7.99101 14.6915 8.01701C14.7155 8.04701 14.7315 8.07501 14.6895 8.12701C14.6495 8.16201 14.6225 8.18201 14.5825 8.21701C14.5655 8.24901 14.5525 8.29701 14.6105 8.31301C14.7155 8.34301 14.9585 8.18501 14.9585 8.18301C14.9985 8.15301 14.9845 8.09601 14.9815 8.09601C14.9575 8.07001 14.9055 8.08601 14.8715 8.08101C14.8545 8.08101 14.8015 8.07301 14.8255 8.02501C14.8475 7.99501 14.8555 7.97801 14.8705 7.94101C14.8855 7.90501 14.8705 7.88101 14.8125 7.86101C14.7825 7.85501 14.7625 7.85301 14.7395 7.85401H14.7415ZM13.2885 11.714C13.5585 11.727 13.8105 11.717 14.0785 11.73C14.1225 11.766 14.1015 11.85 14.0735 11.864L14.0685 11.866H14.0655H14.0615L13.8355 11.86V11.847C13.8135 11.785 13.6635 11.789 13.6275 11.837V11.84C13.6255 11.84 13.6245 11.843 13.6245 11.844L13.6225 11.849V11.861C13.5025 11.876 13.3975 11.857 13.2795 11.853C13.2445 11.81 13.2495 11.733 13.2895 11.713L13.2885 11.714Z" fill="white"/>
<path d="M19.1826 1H2.18262C1.35419 1 0.682617 1.67157 0.682617 2.5V13.5C0.682617 14.3284 1.35419 15 2.18262 15H19.1826C20.011 15 20.6826 14.3284 20.6826 13.5V2.5C20.6826 1.67157 20.011 1 19.1826 1Z" stroke="black" stroke-opacity="0.1"/>
</g>
</g>
<defs>
<clipPath id="clip0_4407_45664">
<rect width="21" height="15" fill="white" transform="translate(0.182617 0.5)"/>
</clipPath>
</defs>
</svg>
