<svg width="19" height="20" viewBox="0 0 19 20" fill="none" xmlns="http://www.w3.org/2000/svg">
<g id="vuesax/outline/search-normal">
<g id="vuesax/outline/search-normal_2">
<g id="search-normal">
<path id="Vector" d="M9.10384 17.7189C4.63092 17.7189 0.989258 14.0772 0.989258 9.60433C0.989258 5.13141 4.63092 1.48975 9.10384 1.48975C13.5768 1.48975 17.2184 5.13141 17.2184 9.60433C17.2184 14.0772 13.5768 17.7189 9.10384 17.7189ZM9.10384 2.67725C5.28009 2.67725 2.17676 5.7885 2.17676 9.60433C2.17676 13.4202 5.28009 16.5314 9.10384 16.5314C12.9276 16.5314 16.0309 13.4202 16.0309 9.60433C16.0309 5.7885 12.9276 2.67725 9.10384 2.67725Z" fill="#EF6351"/>
<path id="Vector_2" d="M17.4163 18.5101C17.2659 18.5101 17.1155 18.4546 16.9967 18.3359L15.4134 16.7526C15.1838 16.523 15.1838 16.143 15.4134 15.9134C15.643 15.6838 16.023 15.6838 16.2526 15.9134L17.8359 17.4967C18.0655 17.7263 18.0655 18.1063 17.8359 18.3359C17.7171 18.4546 17.5667 18.5101 17.4163 18.5101Z" fill="#EF6351"/>
</g>
</g>
</g>
</svg>
