<svg width="38" height="39" viewBox="0 0 38 39" fill="none" xmlns="http://www.w3.org/2000/svg">
<g id="snap">
<path id="Ellipse" d="M37.3706 19.2127C37.3706 29.358 29.1458 37.5826 19 37.5826C8.85417 37.5826 0.629384 29.358 0.629384 19.2127C0.629384 9.06727 8.85417 0.842763 19 0.842763C29.1458 0.842763 37.3706 9.06727 37.3706 19.2127Z" stroke="white" stroke-opacity="0.5" stroke-width="1.25877"/>
<path id="Vector" d="M24.9105 25.1638C25.521 25.0601 26.7843 24.8207 27.026 24.2179C27.1478 23.9074 26.9738 23.655 26.7515 23.6165C24.6039 23.2335 23.6358 20.8491 23.5963 20.7476C23.0011 19.5913 24.6166 19.7857 25.2519 19.0806C25.8718 18.3893 24.8777 17.6406 24.2557 17.9584C24.0007 18.0882 23.6184 18.2391 23.364 18.1129C23.4242 17.0182 23.5909 15.2033 23.1819 14.2123C21.8061 10.8733 17.7492 10.7529 15.8639 12.6912C14.3784 14.2174 14.5605 15.7865 14.6997 18.1129C14.2378 18.3312 13.7812 17.8974 13.4485 17.8974C13.099 17.8974 12.6927 18.1433 12.627 18.514C12.544 19.0008 13.0321 19.3141 13.4545 19.4948C14.1742 19.8009 14.8584 19.8916 14.4788 20.7272C14.4755 20.7338 14.4728 20.7403 14.4708 20.7468C13.9332 22.0772 12.7596 23.3561 11.3149 23.6144C11.0819 23.6557 10.9226 23.9219 11.0391 24.2157V24.2172C11.2781 24.8207 12.5534 25.0623 13.1553 25.1638C13.3414 25.5411 13.1988 26.2861 13.7752 26.2861C13.9995 26.2861 14.4333 26.1272 14.9869 26.1272C15.7936 26.1272 16.0688 26.318 16.7155 26.8127C17.3796 27.3212 18.1093 27.8181 19.0165 27.7463C19.9611 27.8101 20.6627 27.3393 21.3509 26.8141L21.3516 26.8127C22.0224 26.3013 22.5017 25.9233 23.9223 26.2258C24.9734 26.4464 24.6668 25.6753 24.9105 25.1638Z" fill="white" fill-opacity="0.5"/>
</g>
</svg>
