<svg width="38" height="39" viewBox="0 0 38 39" fill="none" xmlns="http://www.w3.org/2000/svg">
<g id="tweter">
<path id="Ellipse" d="M37.3706 19.2127C37.3706 29.358 29.1458 37.5826 19 37.5826C8.85417 37.5826 0.629384 29.358 0.629384 19.2127C0.629384 9.06727 8.85417 0.842763 19 0.842763C29.1458 0.842763 37.3706 9.06727 37.3706 19.2127Z" stroke="white" stroke-opacity="0.5" stroke-width="1.25877"/>
<path id="Vector" d="M25.5759 16.8788C26.1772 16.4163 26.6829 15.8389 27.095 15.1741V15.1734C26.5449 15.4344 25.9597 15.6079 25.3486 15.692C25.9769 15.2855 26.4568 14.6467 26.6823 13.8771C26.0965 14.2556 25.4496 14.5226 24.7603 14.6721C24.204 14.03 23.4112 13.6328 22.5463 13.6328C20.8683 13.6328 19.5174 15.1086 19.5174 16.9175C19.5174 17.1779 19.5377 17.4282 19.5876 17.6665C17.0681 17.533 14.8381 16.2247 13.3399 14.2309C13.0787 14.7228 12.9247 15.2855 12.9247 15.8909C12.9247 17.0284 13.465 18.0363 14.2713 18.6203C13.7841 18.6103 13.3067 18.4568 12.9019 18.2158V18.2519C12.9019 19.8478 13.9522 21.1735 15.3303 21.4792C15.0833 21.5526 14.8147 21.5873 14.5356 21.5873C14.3416 21.5873 14.1457 21.5753 13.9621 21.5313C14.3545 22.8315 15.4695 23.7881 16.7939 23.8194C15.7627 24.6932 14.4531 25.2198 13.0356 25.2198C12.7873 25.2198 12.5489 25.2078 12.3105 25.1751C13.6535 26.1129 15.244 26.6489 16.9603 26.6489C22.3092 26.6489 25.7952 21.8136 25.5759 16.8788Z" fill="white" fill-opacity="0.5"/>
</g>
</svg>
