<svg width="22" height="23" viewBox="0 0 22 23" fill="none" xmlns="http://www.w3.org/2000/svg">
<g id="Group">
<path id="Vector" d="M17.2646 5.24344C16.5932 4.57207 16.5932 3.48363 17.2646 2.81226L15.8362 1.38387C15.2299 0.77756 14.2469 0.77756 13.6405 1.38387L6.37025 8.65418V10.1441H4.88034L0.884423 14.14C0.278109 14.7463 0.278109 15.7294 0.884423 16.3357L2.31281 17.7641C2.98418 17.0927 4.07262 17.0927 4.74399 17.7641C5.41536 18.4355 5.41536 19.5239 4.74399 20.1953L6.16464 21.6159C6.77095 22.2223 7.75399 22.2223 8.36035 21.6159L12.3563 17.62V16.1301H13.8462L21.1165 8.8598C21.7228 8.25348 21.7228 7.27045 21.1165 6.66409L19.6958 5.24344C19.0244 5.91481 17.9359 5.91481 17.2646 5.24344Z" fill="white"/>
<path id="Vector_2" d="M6.37025 10.1441H4.88034L0.884423 14.14C0.278109 14.7463 0.278109 15.7294 0.884423 16.3357L2.31281 17.7641C2.98418 17.0927 4.07262 17.0927 4.74399 17.7641C5.41536 18.4355 5.41536 19.5239 4.74399 20.1953L6.16464 21.6159C6.77095 22.2223 7.75399 22.2223 8.36035 21.6159L12.3563 17.62V16.1301L6.37025 10.1441Z" fill="#DD8571"/>
<path id="Vector_3" d="M16.2492 9.52438C16.7239 9.52438 17.1087 9.13955 17.1087 8.66484C17.1087 8.19013 16.7239 7.8053 16.2492 7.8053C15.7745 7.8053 15.3896 8.19013 15.3896 8.66484C15.3896 9.13955 15.7745 9.52438 16.2492 9.52438Z" fill="white"/>
<path id="Vector_4" d="M11.2709 9.6755C11.7456 9.6755 12.1305 9.29067 12.1305 8.81596C12.1305 8.34125 11.7456 7.95642 11.2709 7.95642C10.7962 7.95642 10.4114 8.34125 10.4114 8.81596C10.4114 9.29067 10.7962 9.6755 11.2709 9.6755Z" fill="white"/>
<path id="Vector_5" d="M7.85689 12.0603C7.96685 12.0603 8.07681 12.0183 8.16069 11.9344C8.32853 11.7666 8.32854 11.4946 8.16074 11.3267L7.95843 11.1244C7.79072 10.9567 7.51858 10.9566 7.35074 11.1244C7.1829 11.2922 7.1829 11.5643 7.3507 11.7321L7.553 11.9344C7.63692 12.0183 7.74689 12.0603 7.85689 12.0603Z" fill="#2B0000"/>
<path id="Vector_6" d="M9.79981 12.966L9.54705 12.7133C9.37925 12.5455 9.10721 12.5455 8.93936 12.7133C8.77152 12.8811 8.77152 13.1531 8.93932 13.3209L9.19207 13.5737C9.276 13.6576 9.38596 13.6996 9.49592 13.6996C9.60588 13.6996 9.71584 13.6576 9.79972 13.5737C9.96761 13.4059 9.96761 13.1338 9.79981 12.966Z" fill="#2B0000"/>
<path id="Vector_7" d="M10.5382 14.312C10.3704 14.4798 10.3704 14.7519 10.5382 14.9197L10.8215 15.2029C10.9054 15.2868 11.0153 15.3288 11.1253 15.3288C11.2353 15.3288 11.3453 15.2868 11.4292 15.2029C11.597 15.0351 11.597 14.763 11.4292 14.5952L11.1458 14.312C10.9781 14.1442 10.706 14.1442 10.5382 14.312Z" fill="#2B0000"/>
<path id="Vector_8" d="M21.4203 6.36032L19.9996 4.93968C19.919 4.85911 19.8098 4.81382 19.6958 4.81382C19.5818 4.81382 19.4725 4.85911 19.3919 4.93968C19.1484 5.18319 18.8247 5.31734 18.4802 5.31734C18.1358 5.31734 17.812 5.18319 17.5685 4.93968C17.0657 4.43692 17.0657 3.61889 17.5685 3.11614C17.7363 2.94834 17.7363 2.67625 17.5685 2.50845L16.1401 1.08011C15.3672 0.307282 14.1096 0.307282 13.3367 1.08011L6.06645 8.35046C5.98588 8.43103 5.94059 8.5403 5.94059 8.65426L5.94054 9.71447H4.88038C4.76642 9.71447 4.65714 9.75976 4.57653 9.84033L0.580618 13.8362C0.206216 14.2106 0 14.7084 0 15.2379C0 15.7675 0.206216 16.2652 0.580618 16.6396L2.00896 18.068C2.1768 18.2359 2.4488 18.2359 2.61669 18.068C2.8602 17.8245 3.18403 17.6904 3.52844 17.6904C3.87289 17.6904 4.19667 17.8245 4.44019 18.068C4.68374 18.3115 4.81785 18.6354 4.81785 18.9798C4.81785 19.3242 4.68374 19.648 4.44019 19.8915C4.35962 19.9721 4.31433 20.0814 4.31433 20.1954C4.31433 20.3093 4.35962 20.4186 4.44019 20.4992L5.86088 21.9199C6.24735 22.3063 6.75497 22.4995 7.26258 22.4995C7.77019 22.4995 8.27784 22.3063 8.66427 21.9199L12.6602 17.9239C12.7408 17.8434 12.786 17.7341 12.786 17.6201V16.5599H13.8462C13.9602 16.5599 14.0694 16.5146 14.1501 16.4341L16.7484 13.8358C16.9162 13.668 16.9162 13.3959 16.7484 13.2281C16.5805 13.0603 16.3085 13.0603 16.1406 13.2281L13.6682 15.7005H12.3563C12.1191 15.7005 11.9266 15.8929 11.9266 16.1302V17.4421L8.05659 21.3122C7.61884 21.75 6.90639 21.75 6.46861 21.3122L5.3216 20.1652C5.55308 19.8166 5.67731 19.4078 5.67731 18.9798C5.67731 18.4059 5.45382 17.8662 5.04796 17.4604C4.6421 17.0545 4.10248 16.831 3.52852 16.831C3.10058 16.831 2.69167 16.9553 2.34314 17.1867L1.18844 16.032C0.750652 15.5942 0.750652 14.8818 1.18844 14.444L5.05849 10.5739H6.37034C6.60762 10.5739 6.80004 10.3815 6.80004 10.1442L6.80008 8.83229L13.9444 1.68784C14.3822 1.25001 15.0946 1.25006 15.5324 1.68784L16.6875 2.84289C16.1359 3.67677 16.227 4.8136 16.9608 5.54741C17.3666 5.95326 17.9063 6.17675 18.4802 6.17675C18.9082 6.17675 19.3171 6.05248 19.6656 5.82104L20.8126 6.96801C21.2504 7.40584 21.2504 8.11825 20.8126 8.55603L18.8742 10.4944C18.7064 10.6622 18.7064 10.9343 18.8742 11.1021C19.0421 11.2699 19.3141 11.27 19.482 11.1021L21.4203 9.16376C22.1932 8.39085 22.1932 7.13328 21.4203 6.36032Z" fill="#2B0000"/>
<path id="Vector_9" d="M12.9298 6.15179C12.7012 6.21543 12.5674 6.45237 12.6311 6.68097L14.025 11.6892C14.0779 11.8793 14.2506 12.0038 14.4388 12.0038C14.4769 12.0038 14.5157 11.9987 14.5543 11.988C14.7829 11.9243 14.9166 11.6874 14.853 11.4588L13.459 6.45052C13.3954 6.22191 13.1585 6.08828 12.9298 6.15179Z" fill="#2B0000"/>
<path id="Vector_10" d="M15.3374 7.7532C14.8348 8.25587 14.8348 9.07377 15.3374 9.57653C15.5888 9.82786 15.9189 9.95351 16.2491 9.95351C16.5793 9.95351 16.9094 9.82782 17.1608 9.57649C17.6634 9.07377 17.6634 8.25587 17.1608 7.7532C16.9172 7.50969 16.5935 7.37558 16.2491 7.37558C15.9047 7.37558 15.5809 7.50969 15.3374 7.7532ZM16.553 8.9688C16.3854 9.13643 16.1128 9.13638 15.9452 8.9688C15.7776 8.80121 15.7776 8.52848 15.9452 8.36089C16.0264 8.27972 16.1343 8.23499 16.2491 8.23499C16.3639 8.23499 16.4719 8.27972 16.553 8.36089C16.7206 8.52848 16.7206 8.80121 16.553 8.9688Z" fill="#2B0000"/>
<path id="Vector_11" d="M12.1825 7.90433C11.939 7.66081 11.6152 7.5267 11.2708 7.5267C10.9264 7.5267 10.6027 7.66081 10.3592 7.90433C9.85654 8.407 9.85649 9.2249 10.3592 9.72765C10.6105 9.97899 10.9406 10.1046 11.2708 10.1046C11.601 10.1046 11.9311 9.97894 12.1825 9.72761C12.6852 9.2249 12.6851 8.40695 12.1825 7.90433ZM11.5748 9.11988C11.4072 9.28751 11.1345 9.28746 10.9669 9.11988C10.7993 8.95229 10.7993 8.67956 10.9669 8.51197C11.0481 8.4308 11.156 8.38607 11.2708 8.38607C11.3856 8.38607 11.4936 8.4308 11.5748 8.51197C11.7424 8.6796 11.7424 8.95229 11.5748 9.11988Z" fill="#2B0000"/>
<path id="Vector_12" d="M6.74284 13.0834C6.57508 12.9156 6.30308 12.9156 6.13511 13.0834L4.67639 14.5421C4.50859 14.7099 4.50859 14.982 4.67639 15.1498C4.76031 15.2337 4.87027 15.2756 4.98023 15.2756C5.09019 15.2756 5.20015 15.2337 5.28408 15.1498L6.7428 13.6911C6.91064 13.5233 6.91064 13.2512 6.74284 13.0834Z" fill="#2B0000"/>
<path id="Vector_13" d="M6.31719 16.6128C6.42715 16.6128 6.53711 16.5708 6.62103 16.4869L8.07975 15.0282C8.24755 14.8604 8.24755 14.5883 8.07975 14.4205C7.912 14.2527 7.63999 14.2527 7.47202 14.4205L6.0133 15.8792C5.8455 16.047 5.8455 16.3191 6.0133 16.4869C6.09722 16.5709 6.20718 16.6128 6.31719 16.6128Z" fill="#2B0000"/>
<path id="Vector_14" d="M7.65435 17.9499C7.76435 17.9499 7.87427 17.9079 7.95819 17.824L9.41687 16.3653C9.58467 16.1975 9.58467 15.9254 9.41687 15.7576C9.24902 15.5898 8.97702 15.5898 8.80914 15.7576L7.35046 17.2163C7.18266 17.3841 7.18266 17.6562 7.35046 17.824C7.43442 17.908 7.54434 17.9499 7.65435 17.9499Z" fill="#2B0000"/>
<path id="Vector_15" d="M17.811 11.7358C17.698 11.7358 17.5872 11.7818 17.5072 11.8617C17.4269 11.9416 17.3813 12.0525 17.3813 12.1655C17.3813 12.2785 17.4269 12.3894 17.5072 12.4693C17.5872 12.5492 17.698 12.5952 17.811 12.5952C17.924 12.5952 18.0349 12.5492 18.1148 12.4693C18.1947 12.3894 18.2407 12.2785 18.2407 12.1655C18.2407 12.0525 18.1947 11.9416 18.1148 11.8617C18.0349 11.7818 17.924 11.7358 17.811 11.7358Z" fill="#2B0000"/>
</g>
</svg>
