<svg width="10" height="10" viewBox="0 0 14 14" fill="#000" xmlns="http://www.w3.org/2000/svg">
<path d="M13.7539 12.5918L8.15938 7.00032L13.7539 1.45C14.0343 1.12527 14.0191 0.63797 13.7191 0.331575C13.4191 0.0251801 12.9353 0.00298718 12.6089 0.280639L6.99794 5.78979L1.48517 0.239465C1.16616 -0.0798216 0.650928 -0.0798216 0.33191 0.239465C0.177068 0.394089 0.089971 0.60457 0.089971 0.824143C0.089971 1.04372 0.177068 1.2542 0.33191 1.40882L5.8365 6.95091L0.241939 12.493C0.0870965 12.6476 0 12.8581 0 13.0777C0 13.2973 0.0870965 13.5077 0.241939 13.6624C0.396295 13.8165 0.605255 13.9024 0.82266 13.9012C1.03608 13.9025 1.24154 13.8197 1.3952 13.6706L6.99794 8.11203L12.6089 13.7612C12.7632 13.9153 12.9722 14.0013 13.1896 14C13.4042 13.9991 13.6098 13.9133 13.7621 13.7612C13.9159 13.6055 14.0015 13.3944 14 13.1748C13.9984 12.9552 13.9099 12.7453 13.7539 12.5918Z"/>
</svg>
