<svg width="24" height="25" viewBox="0 0 24 25" fill="none" xmlns="http://www.w3.org/2000/svg">
<g id="Iconsax/Linear/box1" clip-path="url(#clip0_7904_81716)">
<path id="Vector" d="M3.16992 7.93994L11.9999 13.0499L20.7699 7.96994M11.9999 22.1099V13.0399" stroke="#AAAAAA" stroke-width="2.25" stroke-linecap="round" stroke-linejoin="round"/>
<path id="Vector_2" d="M9.73401 2.50548L3.9025 5.61445C2.58112 6.31817 1.5 8.08272 1.5 9.53217V15.4665C1.5 16.916 2.58112 18.6805 3.9025 19.3842L9.73401 22.5037C10.9789 23.1654 13.0211 23.1654 14.266 22.5037L20.0975 19.3842C21.4189 18.6805 22.5 16.916 22.5 15.4665V9.53217C22.5 8.08272 21.4189 6.31817 20.0975 5.61445L14.266 2.49497C13.0101 1.83327 10.9789 1.83327 9.73401 2.50548V2.50548Z" stroke="#AAAAAA" stroke-width="2.25" stroke-linecap="round" stroke-linejoin="round"/>
</g>
<defs>
<clipPath id="clip0_7904_81716">
<rect width="24" height="24" fill="white" transform="translate(0 0.5)"/>
</clipPath>
</defs>
</svg>
