<svg width="16" height="16" viewBox="0 0 16 16" fill="none" xmlns="http://www.w3.org/2000/svg">
<path d="M4.66797 5.33333C4.66797 3.49238 6.16035 2 8.0013 2C9.84225 2 11.3346 3.49238 11.3346 5.33333C11.3346 7.17428 9.84225 8.66667 8.0013 8.66667C6.16035 8.66667 4.66797 7.17428 4.66797 5.33333ZM8.0013 7.33333C9.10587 7.33333 10.0013 6.4379 10.0013 5.33333C10.0013 4.22876 9.10587 3.33333 8.0013 3.33333C6.89673 3.33333 6.0013 4.22876 6.0013 5.33333C6.0013 6.4379 6.89673 7.33333 8.0013 7.33333Z" fill="#EF6351"/>
<path d="M4.23007 10.8954C3.22987 11.8956 2.66797 13.2522 2.66797 14.6667H4.0013C4.0013 13.6058 4.42273 12.5884 5.17288 11.8382C5.92302 11.0881 6.94044 10.6667 8.0013 10.6667C9.06217 10.6667 10.0796 11.0881 10.8297 11.8382C11.5799 12.5884 12.0013 13.6058 12.0013 14.6667H13.3346C13.3346 13.2522 12.7727 11.8956 11.7725 10.8954C10.7723 9.89524 9.41579 9.33333 8.0013 9.33333C6.58681 9.33333 5.23026 9.89524 4.23007 10.8954Z" fill="#EF6351"/>
</svg>
